<?xml version="1.0" encoding="UTF-8" standalone="no"?>
<svg
   xmlns:dc="http://purl.org/dc/elements/1.1/"
   xmlns:cc="http://creativecommons.org/ns#"
   xmlns:rdf="http://www.w3.org/1999/02/22-rdf-syntax-ns#"
   xmlns:svg="http://www.w3.org/2000/svg"
   xmlns="http://www.w3.org/2000/svg"
   viewBox="0 0 490.95999 387.21332"
   height="387.21332"
   width="490.95999"
   xml:space="preserve"
   id="svg2"
   version="1.1"><metadata
     id="metadata8"><rdf:RDF><cc:Work
         rdf:about=""><dc:format>image/svg+xml</dc:format><dc:type
           rdf:resource="http://purl.org/dc/dcmitype/StillImage" /></cc:Work></rdf:RDF></metadata><defs
     id="defs6" /><g
     transform="matrix(1.3333333,0,0,-1.3333333,0,387.21333)"
     id="g10"><g
       transform="scale(0.1)"
       id="g12"><path
         id="path14"
         style="fill:#000000;fill-opacity:1;fill-rule:nonzero;stroke:none"
         d="m 6.79688,929.914 c -6.960942,23.731 -10.97657,48.582 0.08203,72.046 86.79299,105.61 182.61709,210.58 256.26209,319.64 36.781,55.55 81.875,103.41 125.859,154.24 2.676,57.15 -24.055,124.13 24.242,167.12 -6.082,26.76 22.563,35.94 39.028,49.61 25.777,6.06 59.335,17.42 70.597,35.89 26.18,-3.94 67.016,25.75 88.504,-10.42 18.535,11.76 52.789,6.14 51.492,38.12 36.86,53.54 89.981,125.75 155.801,131.42 44.617,-14.21 80.449,-58.79 109.93,-94.62 2.336,-32.94 46.379,-33.15 38.879,-70.5 l 4.207,-4.82 2.871,3.12 c 82.139,-75.74 208.899,-42.56 310.159,-71.5 3.51,12.16 13.13,21.55 -1.25,30.97 -25.25,30.02 -14.07,75.5 -42.28,104.39 -2.92,22.9 -16.65,40.36 -19.58,63.25 -99.6,12.99 -195.77,40.1 -277.975,92.81 -25.43,9.98 -53.332,6.85 -76.828,-6.11 -69.863,20.18 -170.652,-11.92 -223.012,70.01 29.395,40.24 -12.484,110.6 50.254,118.14 34.203,20.4 67.875,-20.26 104.086,-24.79 19.238,-5.24 41.418,-9.34 62.16,-2.49 6.895,27.29 10.789,54.48 28.848,78.23 7.117,-2.72 19.902,2.81 23.496,12.95 48.887,-21.02 37.332,-81.54 61.933,-120.58 36.918,-21.52 81.058,0.28 118.878,-19.2 32.98,1.34 61.83,5.52 86.42,-8.5 9.62,9.39 16.23,-5.35 27.14,-2.91 10.67,8.45 7.77,30.34 7.25,43.33 -27.36,32.92 -52.25,78.95 -90.51,109.43 -45.71,41.19 -89.97,71.4 -127.849,116.92 -39.25,5.41 -65.09,50.39 -91.114,75.35 -12.863,45.53 -32.304,80.78 -27.343,131.02 24.375,16 35.75,56.49 72.48,38.97 9.024,-24.66 26.414,15.09 39.383,-8.42 l 84.413,-82.65 c 27.41,15.12 23.99,50.01 43.13,71.81 -1.54,12.94 11.78,5.48 18.41,14.76 64.87,4.63 10.08,-75.66 26.29,-105.03 -14.83,-4.6 2.68,-16.9 -11.03,-24.46 -1.35,-16.08 19.16,-28.24 10.74,-42.6 20.59,-14.18 22.6,-39.12 47.3,-31.12 20.69,7.86 7.54,36.35 16.87,52.74 20.45,38.85 55.77,56.3 93.17,71.82 27.09,-1.89 56.04,0.28 77.75,-16.87 10.87,3.46 23.57,10.97 25.09,23.05 -10.21,29.62 -35.38,57.61 -20.81,93.24 -11.79,19.53 -6.01,49.8 -28.56,62.89 4.74,31.22 11.53,61.52 10.19,94.49 11.77,5.48 13.25,18.56 10.93,26.46 -6.33,32.77 -5.67,65.83 13.17,94.61 23.21,19.96 47.63,34.97 77.57,37.19 7.62,9.31 25.49,13.02 38.32,17.55 20.69,7.85 35.3,-31.59 57.43,-9.67 11.62,9.47 25.3,18.03 40.56,11.65 16,-24.37 46.54,-37.14 76.68,-39.93 12.64,-15.5 26.23,-29.96 26.13,-51.98 20.16,-3.18 30.12,-26.81 39.63,-39.44 -16.72,-31.69 23.38,-58.09 13.76,-92.5 -22.6,-34.95 -16.55,-85.74 -46.46,-112.99 0.24,-5.99 2.65,-15.91 -6.31,-17.26 15.45,-35.41 -50.07,-98.11 22.76,-92.16 41.57,-13.33 86.8,6.53 121.15,-26.12 86.39,-57.54 42.11,-174.43 88.86,-241.6 16.28,-80.39 10.45,-158.7 36.3,-228.71 l 5,0.2 c -5.59,-35.25 20.48,-61.21 5.81,-93.83 20.46,-11.19 -11.81,-54.52 28.11,-51.91 93.14,-1.22 178.13,-23.8 255,-68.73 15.77,-43.39 71.32,-31.14 106.06,-48.74 57.68,-15.67 121.75,-16.09 178.52,-33.8 12.95,-23.49 37.98,-23.48 56.5,-35.73 l -3.8,-5.16 16.75,-18.34 2.93,2.12 c 22.07,-26.12 67.21,-53.32 101.19,-76.96 7.75,6.31 14.07,-1.43 19.26,-6.22 263.06,-20.37 512.05,-15.27 770.22,-38.83 l 5.2,-4.79 4.25,-104.91 c 15.6,-14.39 41.46,-10.35 49.43,-34.04 0.77,-43.99 15.26,-80.46 28.75,-116.92 21.35,-33.18 13.34,-57.52 27.58,-87.95 -3.31,-17.16 9.3,-31.66 9.03,-49.69 17.32,-32.32 9.34,-57.65 23.66,-90.115 -8.98,-0.363 -0.68,-8.027 -4.59,-10.175 -15.34,-16.641 -40.16,-21.66 -49.3,-43.047 -20.61,-9.844 -36.21,-44.512 -62.88,-28.567 -5.98,-25.273 -9.73,-56.453 -38.27,-68.613 -6.91,-2.273 -16.14,3.359 -18.77,-5.769 8.44,-10.664 -5.27,-18.223 -3.82,-29.18 -5.59,-10.234 -17.62,-9.707 -21.21,-19.863 -2.12,2.91 -37.01,-0.508 -48.82,19.031 -4.41,-261.406 -12.36,-533.934 -35.17,-786.0626 -19.79,-5.8008 -49.89,-4.0352 -73.83,-6.0078 l -5.89,21.7773 c 18.03,147.8511 29.67,280.4301 23.27,438.3121 l 3.83,4.149 c -3.82,44.902 -0.85,95.051 9.24,142.492 -0.66,15.996 -2.22,29.941 5.14,46.25 -6.53,86.816 8.93,174.512 -8.79,265.859 -56.85,-54.336 -91.97,-125.839 -152.98,-176.328 -9.16,-45.41 -4.22,-93.261 -16.3,-140.781 7.37,-181.855 -33.11,-368.652 -35.6,-553.9062 L 3138.05,0 3073.94,1.38672 c -2.14,102.01128 17,197.86328 11.7,303.74228 11.23,142.547 11.95,297.715 12.98,444.891 l -27.46,10.89 c -106.44,8.711 -216.44,31.25 -325.67,34.832 -16.24,5.344 -36.3,6.524 -52.25,4.883 l -202.8,15.813 -4.72,-7.208 c 7.61,-39.726 -17.93,-75.781 -0.49,-111.113 -95.55,-12.871 -190.13,48.348 -274.16,22.91 -73.38,8.035 -124.34,5.965 -196.84,-7.968 -5.04,0.8 -10.35,8.593 -14.06,1.425 -17.94,-1.73 -43.18,3.25 -57.47,-14.355 -20.04,-122.891 -9.73,-278.606 -14.29,-412.902 -18.91,-51.817 13.48,-110.555 8.52,-160.789 2.93,-22.903 -9.36,-40.4028 -14.55,-60.6372 C 1869.8,54.668 1816.02,72.5 1770.48,35.6172 1709.21,41.1445 1647.55,6.62109 1579.41,8.85938 c -22.27,6.08202 -39.14,27.44142 -64.21,28.41792 -82.68,-34.36714 -172.41,-18 -265.01,-29.76558 -25.18,3.98438 -44.73,17.19528 -51.78,42.93748 -6.13,27.7852 16.08,47.6953 35.54,61.4958 40.62,34.676 83.58,61.446 126.49,89.188 6.29,116.359 -33.43,231.847 -11.53,333.82 -9.76,67.656 1.41,162.188 -40.1,223.563 -5.93,22.765 -2.02,49.953 -7.91,71.73 C 987.59,831.555 663.863,867.473 356.602,843 340.285,801.309 358.586,745.012 340.461,698.234 343.398,502.18 338.508,326.848 335.457,130.547 L 322.922,19.9609 c -20.145,3.1836 -48.035,0.0586 -72.02,-0.9179 2,222.258 0.321,436.379 -6.16,670.312 8.203,44.368 -2.344,106.985 -8.238,153.79 -29.219,4.824 -62.281,5.468 -91.211,3.3 -7.543,-11.308 -44.121,2.219 -41.988,-25.73 C 102.062,752.609 119.25,674.25 99.9805,606.398 91.918,434.941 103.57,246.262 99.5898,72.9688 101.398,53.0195 89.0195,37.5117 94.9062,15.7148 L 24.8828,14.8945 C 34.3125,325.527 3.88672,631.535 6.79688,929.914" /><path
         id="path16"
         style="fill:#ffffff;fill-opacity:1;fill-rule:nonzero;stroke:none"
         d="m 156.453,991.027 c 41.059,-25.371 90.246,-4.355 139.645,-13.359 85.914,28.492 141.211,-2.285 229.816,9.316 107.074,0.34 202.402,-5.8 303.148,2.286 18.809,-19.258 45.891,3.847 69.153,-2.2 59.988,1.438 144.165,-1.172 204.105,1.262 26.15,-2.93 51.05,0.066 79.23,-3.789 5.65,-15.781 21.27,-6.133 32.38,-8.703 62.01,-23.504 119.7,9.863 177.62,-11.805 85.42,-8.547 178.59,-10.773 262.27,-1.387 l 0.29,-6.992 c -18.86,-3.75 -46.4,-15.879 -64.54,-12.617 -46.41,9.129 -94.13,1.191 -147.28,4.023 -88.55,11.426 -188.17,0.391 -272.12,22 -24.94,-2 -56.4,8.723 -81.34,6.711 -12.54,-11.503 -28.97,-1.171 -47.96,-1.945 -52.003,-1.101 -115.108,0.344 -165.858,-6.726 -25.461,-14.043 -61.086,0.546 -89.141,1.394 -117.101,0.246 -272.137,-2.031 -396.238,-2.039 -12.863,-3.547 -33.254,5.633 -44.969,-1.836 -60.187,3.574 -130.211,2.734 -187.523,9.402 l -4.801,-5.203 c -8.481,11.7 -25.344,7.989 -43.164,3.25 -10.3518,8.606 -20.6643,-8.816 -29.1838,3.828 20.0588,23.84 48.4768,13.997 76.4608,15.129" /><path
         id="path18"
         style="fill:#ffffff;fill-opacity:1;fill-rule:nonzero;stroke:none"
         d="m 285.68,1111.36 c 0.047,48.03 46.879,77.95 65,124.73 25.476,38.04 58.715,57.42 75.121,97.12 15.035,-0.4 36.054,-0.54 38.746,-17.45 12.285,-31.53 -15.883,-52.68 -20.793,-79.91 -19.055,1.24 -3.426,-14.14 -11.086,-22.46 -12.063,-23.51 -39.391,-40.62 -45.25,-68.89 14.633,-15.43 25.859,4.05 38.77,6.57 20.328,16.84 43.496,37.81 72.398,40.97 11.824,4.5 6.976,25.3 18.418,14.76 17.805,29.75 60.418,15.46 82.469,39.36 30.297,-6.77 41.504,37.73 71.332,17.91 35.89,3.46 34.187,45.43 57.324,67.39 31.953,26.33 59.519,62.45 97.906,78.03 3.008,0.11 6.047,-0.77 6.914,2.26 -0.437,11.02 -17.89,-2.71 -14.461,11.45 -16.359,8.34 -37.461,10.48 -51.652,14.91 -13.297,-17.55 -11.043,-48.49 -40.816,-54.7 -24.551,13.01 -19.008,-24.78 -40.321,-17.65 -1.793,-5.06 -9.746,-6.39 -6.508,-12.27 -5.156,3.81 0.235,19.03 -12.55,13.51 -20.555,13.18 -33.809,43.68 -58.985,47.64 2.184,20.12 42.867,28.75 45.688,57.9 l 1.148,21.06 -29.258,5.83 c -1.945,-26.11 -27.519,-37.15 -42.933,-51.78 9.187,-4.63 12.836,-20.51 8.242,-30.7 -9.668,-8.38 -23.363,-15.96 -35.563,-11.45 l -3.121,2.87 c -12.421,-14.51 -38.425,-39.59 -56.625,-10.31 l -7.324,7.72 c 14.504,12.59 24.766,31.04 25.953,51.11 -17.511,12.29 -41.273,-18.71 -55.355,7.75 -5.606,14.79 6.898,27.3 17.734,31.74 14.617,9.61 37.957,1.54 47.18,20.94 -15.426,10.38 -20.949,23.17 -22.719,42.11 5.824,4.23 8.34,16.35 18.496,12.76 8.063,23.35 -12.183,53.55 14.352,65.64 53.238,-4.85 25.695,-66.02 58.558,-86.71 6.512,12.28 34.172,-3.62 30.371,16.24 -7.48,11.71 11.172,20.47 10.649,33.48 13.746,6.55 26.617,10.08 38.687,8.56 17.914,-22.29 62.633,-14.47 59.18,-52.65 -3.184,-20.14 -31.68,-33.3 -9.844,-53.44 23.43,-10.07 46.817,-19.12 72.91,-21.05 22.668,8.91 38.711,32.58 61.379,41.51 -0.41,10 6.582,10.28 11.211,19.47 28.946,2.18 62.899,-45.48 88.34,-6.43 -8.605,14.66 -7.324,32.74 -17.844,45.32 l -16.308,-17.68 -7.274,6.71 c -5.636,-9.23 -20.5,-12.84 -31.691,-8.29 -11.512,12.55 -39.453,10.41 -37.43,34.51 0.782,30.05 36.778,55.54 4.676,82.27 -18.23,5.26 -20.125,27.19 -33.641,39.66 5.086,-1.79 8.282,-6.67 12.325,-7.51 -0.578,13.99 -19.043,25.25 -22.649,40.13 l -96.293,-68.97 c -16.105,2.35 -29.504,11.82 -43.859,20.24 53.664,34.2 77.578,86.22 121.832,130.05 19.113,-2.24 34.629,-14.61 51.945,-21.92 0.41,-35.01 50.606,-38.98 55.867,-69.78 13.274,-6.49 28.575,-13.86 37.149,-27.53 -25.125,-22.03 16.242,-30.36 21.008,-49.18 27.968,1.13 34.043,-49.66 61.325,-31.55 47.14,-27.12 104.15,-1.78 152.26,-27.86 62.9,3.56 130.69,-14.72 199.6,-10.92 l 6.8,5.28 c 49.08,-1.01 94.25,-29.2 140.05,-23.34 10.16,-3.59 22.14,-3.11 32.26,-5.71 12.67,8.53 -6.48,11.76 3.11,22.16 45.53,-12.17 99.56,13.04 131.07,-23.72 4.64,-15.82 -15.34,-16.62 -17.82,-29.74 -33.88,-77.44 -43.99,-173.91 -18.56,-257.96 7.85,-20.71 38.43,-34.47 31.41,-58.77 -45.35,-16.86 -96.28,5.09 -146.8,-7.96 -51.29,5.93 -101.96,-3.14 -146.85,18.06 -47.16,3.09 -107.2,2.67 -151.57,10.87 -0.91,-2.04 -2.87,-3.12 -1.79,-5.07 -6.4,9.74 -16.96,-1.7 -27.07,0.89 -1.91,-2.08 2.5,-11.91 -6.62,-9.27 2.03,-0.9 2.95,1.12 4.91,2.2 -3.16,3.87 -8.07,1.67 -12.06,1.51 -8.43,-14.35 -45.49,-13.85 -74.46,-15.03 0.75,6.04 -0.65,15.98 -9.48,11.63 l -6.99,-0.29 15.86,3.65 c -16.51,12.34 -31.77,-6.29 -47.68,-8.93 -38.44,10.45 -71.659,-9.91 -105.554,11.72 -19.394,9.24 -56.308,-18.29 -60.644,14.56 -0.93,22.98 15.136,21.63 19.324,41.83 -17.109,2.28 -31.406,-15.29 -49.395,-16.04 -52.636,-10.11 -96.218,-45.92 -143.734,-58.86 -40.914,-27.68 -88.504,-38.61 -129.535,-63.3 l 1.875,3.08 c -9.875,-3.4 -26.453,-14.08 -40.156,-21.64 -17.028,0.31 -31.125,-22.28 -51.911,-28.14 l -4.195,4.84 c -6.347,-16.27 -28.445,-14.14 -43.187,-20.76 -9.61,14.63 -16.676,-8.69 -30.989,-1.25 -36.339,-41.52 -100.453,-40.12 -147.57,-38.03 18.293,17.77 -8.707,41.7 7.641,58.38" /><path
         id="path20"
         style="fill:#ffffff;fill-opacity:1;fill-rule:nonzero;stroke:none"
         d="m 582.5,1368.59 c 16.066,-1.35 44.082,-1.21 41.934,-22.33 -1.754,-6.07 -4.594,-10.19 -11.582,-10.47 -13.907,-2.58 -48.563,13.05 -30.352,32.8" /><path
         id="path22"
         style="fill:#000000;fill-opacity:1;fill-rule:nonzero;stroke:none"
         d="m 664.68,1588.1 c 17.027,-0.31 29.027,-24.84 37.347,-32.52 -2.953,-1.12 -1.847,-4.08 -1.718,-7.06 l -40.973,-1.67 -5.195,4.79 -1.875,-3.07 c -8.11,2.66 -4.399,9.82 -5.606,14.77 14.867,3.61 6.426,14.28 18.02,24.76" /><path
         id="path24"
         style="fill:#ffffff;fill-opacity:1;fill-rule:nonzero;stroke:none"
         d="m 707.887,2003.18 c 35.625,-14.57 74.75,-16.97 113.883,-19.39 2.839,4.12 9.792,5.41 6.511,12.26 -40.027,24.4 -81.316,30.74 -133.633,37.64 l -2.285,6.9 c 15.071,-1.39 37.809,5.54 53.157,-2.86 22.5,12.93 60.476,-10.55 80.82,6.3 -9.856,20.61 -40.332,7.36 -56.016,23.74 -10.711,-7.44 -17.101,2.31 -26.183,3.94 -6.625,-9.28 -6.266,6.75 -12.059,1.51 -8.961,-1.36 -23.398,9.06 -24.758,18.02 -1.195,4.95 -0.367,8.99 4.516,12.19 43.117,-2.25 94.898,-45.19 152.32,-29.86 2.129,-2.91 6.211,-4.76 5.371,-8.78 -5.633,-9.24 -10.281,6.58 -15.066,1.39 -2.637,-9.12 -19.981,-0.81 -13.43,-14.56 9.238,-5.63 23.195,-4.07 33.184,-3.66 17.187,-4.31 44.277,-6.21 48.847,-20.03 42.024,-24.32 99.574,-11.98 141.344,-30.3 47.46,-10.09 107.91,4.37 140.71,-39.34 5.11,-2.79 10.31,-7.59 17.27,-6.31 -5.43,-14.23 -44.28,6.22 -33.28,-18.35 8.48,-11.68 29.85,4.2 31.59,-13.73 -75.32,5.95 -166.57,10.25 -242.173,48.22 -11.066,1.56 -24.804,-5.01 -33.175,3.65 l -3.348,8.89 c -6.309,-17.27 -27.063,0.9 -41.094,1.33 -33.945,22.64 -23.32,-41.98 -61.34,-17.49 -27.586,13.89 -63.066,0.42 -94.613,13.17 -10.195,4.59 -83.219,3.63 -37.07,25.51" /><path
         id="path26"
         style="fill:#ffffff;fill-opacity:1;fill-rule:nonzero;stroke:none"
         d="m 801.281,1674.7 c 38.426,-34.47 -41.054,-73.71 8.367,-107.75 l 0.168,-3.99 c -9.199,4.63 -19.679,16.21 -33.945,22.64 -33.387,8.65 -7.734,42.72 -26.414,58.98 9.855,28.42 28.16,21.16 51.824,30.12" /><path
         id="path28"
         style="fill:#000000;fill-opacity:1;fill-rule:nonzero;stroke:none"
         d="m 817.949,2028.67 c 12.559,-13.5 40.012,0.62 45.821,-19.16 -16.747,-6.69 -56.915,-3.32 -45.821,19.16" /><path
         id="path30"
         style="fill:#ffffff;fill-opacity:1;fill-rule:nonzero;stroke:none"
         d="m 897.383,2142.97 c 11.887,-21.52 25.097,-51.02 46.008,-73.18 -13.918,-2.58 -25.332,-17.04 -35.891,-3.46 13.645,33.57 -21.484,36.16 -24.617,64.05 l 14.5,12.59" /><path
         id="path32"
         style="fill:#000000;fill-opacity:1;fill-rule:nonzero;stroke:none"
         d="m 955.031,1313.64 c 2.129,-2.93 1.407,-9.96 7.364,-8.71 l -0.489,11.98 c 8.106,-2.66 30.692,8.26 29.461,-10.8 -5.105,-22.23 -45.762,-6.88 -41.512,-37.72 -7.199,4.71 -19.855,-3.81 -24.335,8.01 14.589,10.6 9.687,32.43 29.511,37.24" /><path
         id="path34"
         style="fill:#000000;fill-opacity:1;fill-rule:nonzero;stroke:none"
         d="m 935.832,2009.43 c 7.313,-7.72 -5.266,-18.23 -3.32,-17.15 -4.824,-4.19 -13.692,-7.56 -19.895,-2.81 -2.285,6.91 -5.527,12.79 -4.89,21.82 l 28.105,-1.86" /><path
         id="path36"
         style="fill:#ffffff;fill-opacity:1;fill-rule:nonzero;stroke:none"
         d="m 908.555,2459.7 c 25.324,-32 67.715,-65.32 96.905,-94.16 1.16,-3.95 6.36,-8.74 10.4,-9.58 10.11,-2.59 22.69,7.92 13.3,17.55 -13.89,21.44 -30.722,41.79 -52.195,52.93 -10.559,13.59 -23.32,32.08 -37.91,46.5 -8.477,11.67 -33.586,13.65 -25.364,32.99 l 13.508,12.57 c 32,-48.74 70.946,-96.21 118.531,-134.32 6.96,1.28 16.79,5.7 16.43,14.69 -16.81,19.34 -47.51,36.09 -57.6,62.72 -14.509,12.41 -34.177,28.64 -26.005,48.98 l 7.004,0.29 c 29.391,-33.83 56.741,-66.76 89.891,-94.45 -1.59,-10.07 3.65,-15.86 10.89,-21.57 8.99,0.37 17.74,6.73 21.37,15.88 1.95,26.1 7.81,54.36 17.99,74.79 31.46,-10.74 5.78,-43.79 5.62,-64.82 -10.82,-4.44 3.54,-12.87 -4.22,-19.19 -8.47,-13.36 -10.06,-23.43 -8.34,-41.37 46.27,-30.16 60.32,-80.63 119.36,-105.25 34.87,-20.61 65.98,-47.37 103.43,-57.86 11.36,-8.56 14.85,-20.41 29.79,-18.81 4.46,-35.85 50.38,-32.99 59.77,-66.64 l 62.57,-62.51 c 14.42,14.6 21.18,-4.16 36.06,-0.54 1.41,39.09 51.33,42.12 59.73,81.5 10.47,13.42 17.7,32.73 27.03,49.12 20.26,18.83 47.59,35.96 74.98,27.06 1.56,-13.95 -18.18,-20.75 -10.53,-36.45 12.35,-8.51 21.55,-13.14 34.18,-3.62 1.9,2.07 3.75,6.16 6.78,5.28 6.68,-16.75 -30.6,-35.27 -2.93,-51.16 -10.63,-9.44 -23.25,-18.96 -29.64,-34.23 4.17,-3.84 10.45,-10.59 15.19,-4.4 l 6.72,7.28 c -9.51,-12.4 -27.93,-27.15 -41.43,-39.7 -32.44,-39.36 -72.58,-61 -104.03,-100.3 -5.08,1.79 -14.06,1.42 -19.77,-5.8 -7.52,12.7 -31,23.76 -17.45,35.32 -0.45,10.99 -15.32,7.38 -22.46,11.09 -10.84,-4.44 1.64,-15.94 0.56,-13.99 -3.75,-6.16 -12.63,-9.51 -21.66,-8.88 -3.49,11.87 -19.47,11.22 -17.08,26.32 -12.23,-19.5 -15.55,13.38 -27.74,17.9 -4.94,22.83 2.65,33.14 -21.21,54.18 -14.12,2.44 -22.83,-4.93 -33.62,-10.37 8.83,4.37 -4.81,19.82 -14.83,20.42 -19.71,-7.81 -34.5,11.61 -55.37,7.77 -2.16,3.9 1.77,6.08 4.64,9.18 7.23,-5.71 20.22,-5.18 28.05,-0.85 14.54,11.6 -0.89,21.97 -3.37,33.89 -12.28,6.5 -16.95,-1.69 -28.86,-4.17 l -20.08,26.2 c 5.8,5.24 19.11,-2.22 18.62,9.76 -4.36,8.83 -14.1,2.43 -21.18,4.14 -7.57,13.71 -13.8,19.46 -28.04,24.9 -19.23,5.22 -44.92,-2.83 -62.27,5.48 0.68,8.04 19.46,13.8 9.02,24.38 -14.63,15.42 -39.13,2.43 -52,23.91 l -1.94,-2.07 c -20.28,56.22 -84.47,59.62 -130.25,77.77 -22.99,24.09 -41.141,52.39 -70.859,69.2 -3.848,20.85 -27.579,13.9 -27.352,32.92 -7.07,1.71 -13.555,13.45 -19.394,9.22 -4.356,8.82 -1.047,25.98 -1.34,32.98" /><path
         id="path38"
         style="fill:#ffffff;fill-opacity:1;fill-rule:nonzero;stroke:none"
         d="m 1293.26,2154.03 c -3.76,-6.16 -4.47,-13.2 -14.58,-10.6 l -1.23,-19.07 c -4.09,26.85 -29.66,15.81 -49.01,24.03 l 1.68,8.07 63.14,-2.43" /><path
         id="path40"
         style="fill:#ffffff;fill-opacity:1;fill-rule:nonzero;stroke:none"
         d="m 1370.64,122.492 c 1.42,14.07 17.28,17.723 28.08,23.164 10.11,-2.609 26.98,1.094 24.66,-16.027 l 33.66,-15.645 c -31.12,-22.2731 -62.01,48.528 -86,-1.492 15.79,-19.367 -13.94,-26.5818 -22.86,-28.9451 10.56,11.4453 -6.77,43.7691 22.46,38.9451" /><path
         id="path42"
         style="fill:#ffffff;fill-opacity:1;fill-rule:nonzero;stroke:none"
         d="m 1377.67,1948.28 c -9.71,-7.4 -5.19,-20.23 -5.74,-31.26 4.12,-2.84 6.4,-9.75 12.28,-6.51 8.82,4.36 6.45,13.28 6.13,21.28 22.31,-7.12 47.26,-30.13 65.1,-50.43 -0.67,-8.02 -2.34,-16.09 7.76,-18.69 16.47,13.69 19.91,2.82 36.18,-3.55 28.85,4.19 74.32,-31 83.32,18.4 l 10.28,-6.58 c 8.75,6.36 21.38,15.88 14.84,28.61 -0.19,5 0.65,9.04 4.52,12.2 6.28,-6.75 8.34,-32.7 24.95,-23.01 2.67,8.13 6.98,25.3 1.55,36.1 -3.13,2.87 -7.2,4.7 -5.41,9.78 l 4.8,5.2 c 1.72,-17.93 37.5,-36.5 11.34,-57.58 l 12.36,-8.5 c 4.71,7.18 18.25,18.75 8.73,31.37 -7.91,-2.32 -6.21,29.77 -4.66,40.84 32.38,-8.69 -4.42,-39.2 28.64,-39.87 7.66,8.33 16.08,22.67 7.74,31.34 9.33,16.39 2.41,39.13 13.12,46.57 -9.31,-17.39 -1.54,-36.1 15.64,-40.4 -3.75,-6.15 -3.63,-9.15 0.62,-14.98 38.59,10.57 0.32,66.06 27.24,93.18 1.68,8.07 -4.8,19.82 3.94,26.18 29.38,-8.82 22.7,-41.12 38.61,-63.49 6.08,-1.76 10.91,2.44 11.7,7.48 -9.21,29.64 -7.02,49.75 -5.31,81.85 1.75,6.08 9.86,3.4 8.58,10.36 l -4.14,3.83 c 0.74,6.04 5.66,8.23 11.64,8.48 -3.32,-41.16 0.34,-82.05 11.99,-122.62 14.5,12.61 9.99,25.43 10.25,43.46 -14.44,10.41 4.31,17.18 0.89,27.06 3.79,30.17 -11.45,60.59 -8.6,88.72 42.45,14.73 21.65,-40.16 38.34,-56.49 10.56,-38.61 5.78,-68.82 26.06,-100.03 26.65,9.08 -5.96,23.77 12.54,36.54 -15.01,24.42 -2.51,61.94 -15.61,88.44 l 4.59,10.19 c -9.36,33.64 -28.4,58.9 -15.39,83.44 33.82,-68.68 45.54,-160.27 58.01,-245.84 4.96,-23.82 15.76,-43.4 7.59,-63.75 8.32,-7.67 3.85,-20.85 2.97,-23.89 -2.88,-3.13 -2.68,-8.12 -6.6,-10.29 l -5.68,90.85 c -3.11,2.88 -7.11,2.72 -10.27,6.59 -7.78,-30.33 1.64,-64.98 -2.93,-100.19 -14.63,-9.61 -6.37,-16.28 -0.92,-27.07 -2.7,-7.12 5.05,-25.81 -13.81,-29.59 2.44,14.11 -4.92,22.83 -13.29,31.5 0.65,-15.98 -20.37,-15.84 -28.65,-9.18 -5.06,-23.21 -29.76,-31.23 -42.94,-51.79 -14.11,2.44 -23.62,15.07 -39.54,12.42 -14.09,-22.58 -21.71,-56.92 -52.51,-62.18 l -7.48,11.71 c 13.9,2.56 -1.45,10.96 6.3,17.27 11.06,23.47 36.11,47.5 18.94,75.83 -16.98,-0.68 -10.58,-10.43 -18.17,-20.75 -0.91,-27.06 -27.71,-57.16 -28.49,-87.22 -19.58,-10.81 -12.8,-54.57 -43.58,-35.8 -4.41,9.83 -10.76,18.57 -22.8,19.09 -7.03,0.71 -8.71,-7.36 -13.58,-10.55 l -3.62,-34.19 c -24.94,-2.01 -46.75,42.14 -62.15,2.49 7.38,15.31 -18.2,29.28 0.25,43.05 -3.56,13.86 -12.51,12.49 -24.58,14.02 -3.1,-22.16 -47.35,-16.94 -35.91,-52.5 l -22.3,7.09 c 11.54,11.47 14.98,25.63 10.45,38.46 -5.08,1.79 -10.27,6.58 -17.19,4.31 9.75,6.39 14.38,15.59 10.81,29.46 l -5.15,3.79 c -23.71,-7.96 -20.56,-35.87 -41.15,-46.71 l -5.19,4.79 c 4.91,2.21 5.71,7.26 4.51,12.21 -22.07,1.1 -45.73,-7.87 -67.23,4.27 -10.71,-7.44 0.74,-17.99 5.89,-21.77 -7.92,-2.34 -14.99,-0.61 -24.19,4.02 -11.43,10.54 -4.45,35.85 -30.04,24.8 2.73,7.1 -5.23,5.79 -5.3,7.79 l 2.99,0.12 c 0.44,14.03 -6.33,32.77 -18.72,42.27 9.66,8.41 -8.44,10.67 -5.77,18.79 -4.24,79.9 -23.22,153.19 -23.51,234.24 l 103.12,-74.88" /><path
         id="path44"
         style="fill:#ffffff;fill-opacity:1;fill-rule:nonzero;stroke:none"
         d="m 1277.02,2381.55 c 9.72,7.4 8.91,27.39 26.94,27.12 6.19,-4.75 15.98,0.65 22.17,-4.1 -2.79,-5.12 -0.43,-14.03 7.77,-18.71 7.96,1.32 18.98,0.77 25.7,8.05 -2.3,6.92 4.79,5.19 7.7,7.33 17.52,-12.31 6.54,-37.78 18.22,-54.31 l 15,0.61 c 3.38,15.14 -9.18,28.64 -8.87,45.67 46.47,13.88 68.97,-47.24 102.95,-70.89 l 4.42,-34.84 c 32.78,6.32 78.04,25.17 88.54,62.64 44.32,17.81 49.07,98.06 103,76.22 7.76,-18.7 -13.82,-29.59 -15.05,-48.64 -28.84,-29.2 -38.37,-65.61 -73.58,-86.06 5.26,-30.8 -32.63,-9.34 -32.39,-40.34 -6.38,-15.27 15.73,-17.38 -0.82,-29.06 l 7.29,-6.7 c -0.41,9.98 8.7,7.34 14.58,10.59 l 6.99,0.29 c -21.17,-20.88 -12.55,-60.56 -45.04,-73.89 -9.64,-9.39 -23.95,-1.98 -23.21,-19.96 l -3.09,1.88 c -5.46,-13.24 -12.93,-26.55 -27,-25.12 -31.47,10.74 -24.12,52.07 -36.88,70.57 5.15,-3.79 13.63,-15.46 22.39,-9.1 2.91,2.11 2.67,8.11 -0.41,10 -11.93,22.51 -18.66,-8.78 -32.46,10.68 -38.4,-15.57 -39.22,29.43 -68.68,40.27 -6.17,3.74 1.42,14.05 -7.7,16.68 -12.02,0.51 -19.77,-5.8 -28.48,-13.16 16.68,32.7 -40.14,27.4 -21.63,64.18 -7.55,13.71 -21.78,-5.88 -30.96,-1.25 -3.89,-3.17 -5.6,-10.24 -11.68,-8.49 -11.36,33.57 5.69,57.27 -3.6,88.93 l -2.13,2.91" /><path
         id="path46"
         style="fill:#000000;fill-opacity:1;fill-rule:nonzero;stroke:none"
         d="m 1323.37,2349.41 c 19.19,-4.22 4.05,-25.86 15.53,-37.4 -1.84,-4.08 -9.51,-12.39 -15.78,-5.65 -3.53,12.87 -7.42,34.73 0.25,43.05" /><path
         id="path48"
         style="fill:#ffffff;fill-opacity:1;fill-rule:nonzero;stroke:none"
         d="m 1390.75,761.836 c -1.34,7.941 -9.61,14.621 -3.89,21.848 16.18,20.683 38.29,-6.446 54.74,7.226 41.87,-20.312 76.56,-11.914 119.29,-29.18 8.68,-16.671 -7.23,-19.308 -15.73,-31.679 l 1.26,-30.969 c -4.37,8.84 -13.28,6.477 -22.27,6.106 -11.79,-5.469 -14.1,-22.598 -27.29,-18.126 -4.88,-3.203 -5.71,-7.226 -4.5,-12.179 2.03,-0.926 4.22,-5.828 7.19,-4.707 7.92,-22.715 -34.4,-15.43 -8.53,-36.395 28.17,-3.847 27.67,33.164 46.49,37.93 l 0.17,-4.004 c 4.79,5.195 19.53,11.797 28.69,8.164 l 3.12,-2.863 c -23.06,1.047 -9.98,-25.43 -22.72,-31.961 -2.32,-17.09 19.47,-11.211 22.03,-25.129 -9.67,-8.379 -10.06,-23.406 -5.62,-34.246 l 12.2,-4.504 c -13.18,-20.555 -17.96,-50.77 -31.05,-73.309 7.64,-15.714 17.95,1.719 29.13,-2.832 5.3,-31.816 -21.67,-57.929 -22.37,-90 31.25,-5.722 0.37,-33.996 13.93,-47.461 6,0.243 -3,-0.109 -2.87,-3.117 15.95,1.641 17.64,-15.301 23.03,-25.086 -7.86,-28.351 -9.97,-50.461 -4,-74.25 3.53,-12.832 -22.86,-3.894 -23.08,-22.929 l -4.99,-0.204 c 0.79,5.04 1.5,12.071 -7.57,13.719 l -16.5,-12.695 c -0.25,6.008 0.51,12.051 -5.61,14.785 -7.54,-11.309 -20.02,0.195 -23.37,-15.957 -29.09,1.828 -44.76,-6.824 -73.86,-5 -27.44,134.004 -19.84,267.414 -23.52,407.375 -14.45,35.449 -19.35,82.285 -11.93,121.629" /><path
         id="path50"
         style="fill:#ffffff;fill-opacity:1;fill-rule:nonzero;stroke:none"
         d="m 1423.23,182.668 c 30.77,6.258 63.83,5.594 85.02,-23.574 6.2,-4.746 1.54,-12.949 -4.3,-17.188 -19.26,6.231 -41.22,29.356 -60.55,12.559 l -28.34,7.859 c 10.66,8.438 3.51,12.141 8.17,20.344" /><path
         id="path52"
         style="fill:#000000;fill-opacity:1;fill-rule:nonzero;stroke:none"
         d="m 1361.05,2357.94 c 8.56,-13.67 6.22,-29.78 9.82,-44.64 -4.67,-8.19 9.77,-18.62 -1.91,-27.1 -5.1,2.79 -12.98,-0.52 -17.26,6.31 2.71,7.11 2.47,13.11 -4.61,14.83 9.46,13.39 -1.62,39.96 13.96,50.6" /><path
         id="path54"
         style="fill:#000000;fill-opacity:1;fill-rule:nonzero;stroke:none"
         d="m 1424.2,751.184 c 1.12,-2.961 -2.82,-4.114 -4.72,-7.207 1.85,4.089 -4.15,3.847 -2.26,6.914 l 6.98,0.293" /><path
         id="path56"
         style="fill:#000000;fill-opacity:1;fill-rule:nonzero;stroke:none"
         d="m 1434.55,742.609 c -7.29,-17.336 18.99,-48.281 -10.12,-46.464 -3.72,17.871 0.59,35.058 10.12,46.464" /><path
         id="path58"
         style="fill:#000000;fill-opacity:1;fill-rule:nonzero;stroke:none"
         d="m 1438.98,682.727 c -0.89,-27.071 6.52,-61.797 -1.38,-89.133 -9.92,22.629 -5.39,58.828 -8.4,83.73 l 9.78,5.403" /><path
         id="path60"
         style="fill:#000000;fill-opacity:1;fill-rule:nonzero;stroke:none"
         d="m 1386.5,1804.51 c 4.16,-3.83 11.31,-7.54 12.68,-16.49 -1.64,-9.07 -3.22,-19.16 -9.02,-24.39 10.07,-1.59 23.59,-14.06 16.04,-25.36 -2.8,-5.13 -6.75,-6.28 -11.79,-5.49 -15.6,14.38 8.7,32.37 -11.73,42.56 l 3.82,29.17" /><path
         id="path62"
         style="fill:#000000;fill-opacity:1;fill-rule:nonzero;stroke:none"
         d="m 1446,509.855 c 8.19,-4.66 5.73,-17.773 2.98,-23.886 l -3.8,-5.168 c -8.36,8.683 -8.97,23.664 0.82,29.054" /><path
         id="path64"
         style="fill:#000000;fill-opacity:1;fill-rule:nonzero;stroke:none"
         d="m 1462.03,361.398 c 5.91,2.235 12.83,4.52 14.19,-4.445 3.56,-13.855 -12.85,-28.515 -17.37,-40.73 l -6.88,-3.274 c -6.68,16.731 8.63,34.375 10.06,48.449" /><path
         id="path66"
         style="fill:#000000;fill-opacity:1;fill-rule:nonzero;stroke:none"
         d="m 1444.14,555.812 c 6.91,2.305 19.14,-3.222 14.47,-11.406 -7.47,-13.32 -23.02,0.067 -14.47,11.406" /><path
         id="path68"
         style="fill:#000000;fill-opacity:1;fill-rule:nonzero;stroke:none"
         d="m 1474.62,445.969 c 2.11,-2.922 5.07,-1.789 8.07,-1.66 -2.68,-8.125 -2.14,-21.114 -11.11,-22.481 -6.62,-9.277 -6.82,-4.277 -11.98,-0.488 -5.36,8.789 6.1,22.265 15.02,24.629" /><path
         id="path70"
         style="fill:#000000;fill-opacity:1;fill-rule:nonzero;stroke:none"
         d="m 1488.48,523.605 c 10.26,18.418 28.88,28.192 44.5,37.833 l 8.58,10.351 c -2.07,1.914 -6.19,4.766 -4.35,8.828 2.67,8.113 10.82,4.434 15.78,5.645 7.69,-16.7 -11.94,-26.516 -7.44,-38.34 -6.85,-4.277 -7.48,-13.313 -6.32,-17.266 -21.29,-17.871 -31.18,-45.293 -53.53,-62.207 -5.71,-7.258 -17.06,1.309 -16.34,8.34 13.46,13.563 19.6,34.813 19.12,46.816" /><path
         id="path72"
         style="fill:#000000;fill-opacity:1;fill-rule:nonzero;stroke:none"
         d="m 1425.37,1907.18 c 19.19,-4.23 2.97,-23.9 15.44,-35.41 l -8.57,-10.36 c -21.11,2.16 -10.18,28.62 -13.74,42.48 l 6.87,3.29" /><path
         id="path74"
         style="fill:#000000;fill-opacity:1;fill-rule:nonzero;stroke:none"
         d="m 1515.81,318.527 c 9.98,0.411 11.39,-9.55 10.67,-16.574 l -21.28,-17.891 c -12.49,11.516 2.94,26.153 10.61,34.465" /><path
         id="path76"
         style="fill:#000000;fill-opacity:1;fill-rule:nonzero;stroke:none"
         d="m 1452.06,1841.2 c 3.45,-10.86 4.69,-16.81 3.1,-26.89 l -3.8,-5.15 c -11.39,9.54 -2.81,19.9 0.7,32.04" /><path
         id="path78"
         style="fill:#ffffff;fill-opacity:1;fill-rule:nonzero;stroke:none"
         d="m 1419.67,2689.59 c 15.46,13.63 7.63,58.36 42.11,47.74 7.47,-11.7 21.66,-16.13 36.56,-13.53 5.75,6.24 12.47,13.52 11.11,22.47 9.43,-10.63 30.7,-16.77 48.85,-20.04 3.75,6.15 8.63,9.36 15.7,7.64 15.51,-12.37 26.39,-8.93 25.32,-31.99 17.86,3.72 21.59,-14.14 34.66,-15.61 13.03,-25.5 -13.52,-61.61 17.11,-76.38 17.69,7.73 44.24,-5.19 43.07,23.77 l 9,0.36 c -3.07,-23.14 -6.14,-46.29 -9.16,-70.42 -13.03,0.48 -22.09,-22.92 -35.69,-8.45 2.82,-44.93 -25.69,-82.11 -57.5,-112.42 -39.68,-8.62 -52.56,-61.19 -98.76,-57.05 -16.14,3.34 -37.29,6.48 -39.14,27.42 17.61,34.75 90.05,0.67 90.89,53.73 -26.77,42.96 -87.16,-22.54 -99.37,32.01 20.86,3.85 37,25.51 59.18,21.41 -0.29,7 0.35,16.04 -7.68,16.71 -13,-0.52 -31.86,-4.3 -34.55,12.61 11.98,25.5 -9.81,44.64 -0.83,70.02 -17.68,16.3 -63.48,10.44 -53.91,45.85 9.76,6.4 9.35,16.4 3.03,24.15" /><path
         id="path80"
         style="fill:#000000;fill-opacity:1;fill-rule:nonzero;stroke:none"
         d="m 1498.91,735.207 c 7.24,-5.723 26.73,7.09 22.48,-11.113 -5.77,-6.242 -12.68,-8.516 -21.71,-7.883 -7.24,5.715 3.55,11.144 -0.77,18.996" /><path
         id="path82"
         style="fill:#000000;fill-opacity:1;fill-rule:nonzero;stroke:none"
         d="m 1530.77,369.18 c 7.07,-1.707 9.87,3.418 14.79,5.605 -1.36,-16.062 -2.31,-42.137 -19.92,-51.844 -18.6,14.247 1.74,31.094 5.13,46.239" /><path
         id="path84"
         style="fill:#000000;fill-opacity:1;fill-rule:nonzero;stroke:none"
         d="m 1549.97,488.059 14.98,0.625 c 8.73,-17.676 -14.97,-25.645 -6.4,-39.317 -7.4,-15.312 -18.9,-27.773 -34.53,-37.422 -24.2,5.008 5.07,23.223 1.55,36.094 6.26,18.27 21.17,20.879 24.4,40.02" /><path
         id="path86"
         style="fill:#000000;fill-opacity:1;fill-rule:nonzero;stroke:none"
         d="m 1538.57,645.715 c 3.57,-13.848 -0.86,-28.047 -14.81,-29.61 -5.04,0.801 -10.91,-2.453 -12.2,4.512 6.47,13.27 11.06,23.457 27.01,25.098" /><path
         id="path88"
         style="fill:#000000;fill-opacity:1;fill-rule:nonzero;stroke:none"
         d="m 1533.12,607.473 c 7.87,3.32 7.27,-6.711 10.4,-9.582 -4.88,-3.211 -10.12,2.589 -10.4,9.582" /><path
         id="path90"
         style="fill:#000000;fill-opacity:1;fill-rule:nonzero;stroke:none"
         d="m 1555.72,346.172 9.99,0.41 c 5.4,-9.793 0.85,-20.984 -3.82,-29.168 l 10.47,-11.594 c -2.79,-5.136 -7.78,-5.332 -11.89,-2.48 9.46,13.39 -21.49,11.133 -11.17,28.574 l 6.42,14.258" /><path
         id="path92"
         style="fill:#000000;fill-opacity:1;fill-rule:nonzero;stroke:none"
         d="m 1540.37,724.863 -1.72,-7.058 c -0.92,-2.051 -6.08,1.738 -7.28,6.699 l 9,0.359" /><path
         id="path94"
         style="fill:#000000;fill-opacity:1;fill-rule:nonzero;stroke:none"
         d="m 1568.83,269.641 -16.9,-2.688 4.02,24.192 12.88,-21.504" /><path
         id="path96"
         style="fill:#000000;fill-opacity:1;fill-rule:nonzero;stroke:none"
         d="m 1528.11,1743.21 c -3.56,-11.16 7.75,-18.71 1.16,-28.99 -8.23,5.67 -1.6,14.95 -14.76,18.43 -1.44,10.94 8.79,5.35 13.6,10.56" /><path
         id="path98"
         style="fill:#000000;fill-opacity:1;fill-rule:nonzero;stroke:none"
         d="m 1527.28,2232.58 c 13.23,-5.48 5.77,-18.79 8.12,-27.7 -1.83,-4.09 -3.59,-10.16 -8.58,-10.37 -3.58,13.88 -17.17,28.34 0.46,38.07" /><path
         id="path100"
         style="fill:#000000;fill-opacity:1;fill-rule:nonzero;stroke:none"
         d="m 1518.59,2619.54 c 31.59,-13.74 62.58,11.55 92.05,0.73 3.23,-5.88 3.64,-15.88 2.84,-20.91 -16.62,-9.68 -26.41,-15.07 -34.67,-33.43 -13.79,-5.56 -35.69,-8.45 -49.95,-2.02 -8.69,16.65 -42.87,45.3 -10.27,55.63" /><path
         id="path102"
         style="fill:#ffffff;fill-opacity:1;fill-rule:nonzero;stroke:none"
         d="m 1618.81,98.5352 c 6.87,3.2738 10.12,-2.5977 14.28,-6.4336 2.43,-10.8985 -15.68,-8.6328 -23.5,-12.9493 2.71,7.1094 -2.86,20.8867 9.22,19.3829" /><path
         id="path104"
         style="fill:#ffffff;fill-opacity:1;fill-rule:nonzero;stroke:none"
         d="m 1662.42,158.34 c 10.11,-2.586 16.47,-11.336 9.76,-18.633 l 3,0.129 -14.7,-7.578 c 4.07,-1.848 2.35,-8.926 7.31,-7.727 l 32.83,-19.687 c -19.83,-4.813 -35.91,21.574 -58.73,16.64 31.78,6.301 -15.52,37.395 20.53,36.856" /><path
         id="path106"
         style="fill:#000000;fill-opacity:1;fill-rule:nonzero;stroke:none"
         d="m 1572.07,2016.21 c 5.92,2.24 11.5,12.47 18.79,5.76 4.44,-10.83 -5.2,-20.22 -15.02,-24.63 l -8.19,4.67 c 9.03,-0.63 3.51,12.16 4.42,14.2" /><path
         id="path108"
         style="fill:#000000;fill-opacity:1;fill-rule:nonzero;stroke:none"
         d="m 1586.95,1723.57 c 10.94,1.45 11.39,-9.55 7.67,-16.71 -5.95,-1.24 -3.51,-12.14 -9.82,-4.4 l 2.15,21.11" /><path
         id="path110"
         style="fill:#000000;fill-opacity:1;fill-rule:nonzero;stroke:none"
         d="m 1613.9,1700.65 c 7.29,17.3 -8.22,29.69 12.4,39.53 10.36,-8.58 13.21,-29.49 9.46,-35.66 0.61,-14.98 -19.18,-20.79 -18.53,-36.77 -8.66,-8.36 -18.07,1.27 -26.27,5.95 -4.68,16.82 15.3,17.62 22.94,26.95" /><path
         id="path112"
         style="fill:#ffffff;fill-opacity:1;fill-rule:nonzero;stroke:none"
         d="m 1712.71,201.418 c 12.13,-2.5 16.16,-3.352 20.59,-14.18 l 2.85,-20.898 c 4.72,7.187 -17.91,-2.727 -13.7,-7.559 -7.2,4.715 -15.31,7.371 -24.27,6.004 -8.34,-16.336 -23.89,-2.949 -32.25,5.703 -5.13,27.824 33.32,17.383 46.78,30.93" /><path
         id="path114"
         style="fill:#ffffff;fill-opacity:1;fill-rule:nonzero;stroke:none"
         d="m 1669.45,379.805 c 5.23,19.218 0.5,37.062 0.57,60.07 5.27,67.293 -11.3,130.645 -8.48,208.828 l 6.71,7.285 9.72,-66.66 c 21.46,-11.133 9.27,18.399 21.01,24.863 -4.18,28.868 -2.19,53.965 -18.07,75.332 1.67,8.086 6.63,9.278 11.5,12.481 l 10.08,-1.582 c -12.67,-8.535 -7.02,-24.317 -5.61,-34.277 6.11,-2.735 6.64,-15.743 17.47,-11.29 9.55,11.387 6.94,26.297 10.41,39.454 l 13.98,0.566 c -4.59,-10.176 0.85,-20.988 6.17,-28.781 4.97,1.203 18.11,-2.274 20.71,7.844 -2.33,7.929 2.38,15.097 9.29,17.402 4.37,-8.828 -8.02,-24.356 3.54,-37.902 8.67,8.371 15.06,23.644 18.53,36.789 15.75,-18.372 -5.24,-68.262 38.73,-66.465 6.25,18.242 6.53,36.289 23.92,51.992 0.87,3.047 -2.33,7.918 1.62,9.09 l 10.16,-3.602 c -1.87,-28.117 -21.72,-56.926 -6.68,-82.336 -0.22,-19.031 -15.55,-35.672 -6.96,-50.32 l -4.8,-5.215 c 3.68,-65.898 28.35,-155.969 -0.75,-228.195 -8.1,-22.352 11.73,-42.586 -4.36,-65.242 -1.04,0.957 -2.12,2.91 -5.07,1.796 l -0.21,4.989 c 4.04,-0.828 4.87,3.215 7.79,5.324 -3.2,4.863 -5.4,9.773 -10.55,13.574 -4.92,-2.187 -13.04,0.469 -16.71,-7.668 -23.31,7.043 -64.15,2.395 -93.04,-0.781 -11.29,6.555 -25.86,-4.031 -38.77,-6.57 l -23.86,-3.957 c -3.69,16.847 -6.94,47.734 0.08,72.043 -4.65,15.82 7.85,28.367 1.93,51.121" /><path
         id="path116"
         style="fill:#ffffff;fill-opacity:1;fill-rule:nonzero;stroke:none"
         d="m 1654.53,698.469 c 1.39,15.058 14.88,27.636 3.26,43.172 l 6.38,15.285 5.39,-9.805 c -3.17,-20.137 12.07,-50.559 -9.55,-60.441 l -9.22,-19.395 c -8.32,7.668 3.15,21.145 3.74,31.184" /><path
         id="path118"
         style="fill:#000000;fill-opacity:1;fill-rule:nonzero;stroke:none"
         d="m 1723.24,311.934 c 16.03,-0.352 7.52,-12.704 9.97,-23.614 -3.96,-1.16 -5.72,-7.234 -11.78,-5.476 -6.41,9.734 -9.85,20.625 1.81,29.09" /><path
         id="path120"
         style="fill:#ffffff;fill-opacity:1;fill-rule:nonzero;stroke:none"
         d="m 1711.67,942.988 c 3.75,6.164 0.15,21.028 14.09,22.578 19.73,31.829 13.61,59.604 36.49,87.554 -9.4,9.63 7.63,9.31 2.2,20.1 -26.12,76.02 -51.25,153.06 -79.35,228.98 -8.75,67.71 -18.55,136.37 19.19,192.94 23.57,35.98 15.7,81.7 28.11,121.24 15.94,26.66 24.45,39.02 36.34,66.53 62.97,51.6 131.08,99.39 216.62,87.84 56.79,6.3 105.69,-14.72 159.72,-14.54 6.61,-14.75 39.33,-7.4 32.24,-29.73 71.38,-8.1 123.38,-81.06 195.36,-79.14 60.52,-11.56 128.3,-4.8 186.09,-23.47 4.76,6.19 13.8,5.56 20.78,5.84 l 108.22,-101.7 c -42.4,-15.73 -77.82,18.87 -107.37,31.68 -1.03,0.95 10.07,-1.6 11.98,0.49 -2.48,11.9 -15.76,18.37 -26.74,17.92 -14.22,-19.58 -16.97,-50.72 -29.16,-70.23 -10.55,-36.46 -17.96,-75.79 -40.8,-104.73 14.67,-41.45 0.87,-96.06 0.84,-144.1 -16.29,-67.72 -11.25,-142.56 -49.86,-202.19 7.36,-33.71 -17.39,-64.748 -10.03,-98.479 -18.8,-29.785 20.35,-57.226 8.49,-85.734 l 3.67,-40.879 c -8.56,-11.356 -1.58,-35.106 -3.06,-48.164 3.56,-13.856 4.09,-26.864 -2.42,-39.129 -18.62,-9.766 -30.29,6.777 -53.08,0.847 -5.33,7.805 -22.46,11.106 -10.84,20.579 -9.55,13.613 -29.65,-9.219 -41.37,8.339 -14.91,-2.617 -34.65,-9.414 -43.16,3.243 4.91,2.187 2.1,22.109 -7.86,20.703 -15.05,1.386 -6.62,-9.289 -13.34,-16.543 l 4.21,-4.844 c -8.72,-7.363 -28.75,-7.168 -44.85,-4.824 -15.98,-0.645 -31.25,5.742 -41.15,3.34 -9.96,-1.407 -12.56,-11.524 -21.7,-7.891 l 2.91,2.129 c -51.13,1.934 -101.49,9.883 -149.01,-3.039 l -12.27,6.496 9.51,12.391 -10.4,9.601 6.71,7.266 c -5.45,10.801 -16.31,7.351 -23.98,-0.977 9.35,-8.613 -8.78,-5.351 -4.39,-15.176 6.41,-9.765 21.08,-26.171 1.26,-30.976 -23.94,-1.973 -50.24,4.961 -79.22,3.789 -53.71,-8.164 -112.25,-20.566 -164.79,-8.672 -14.55,13.418 -3.62,39.871 -22.01,49.141 -4.58,38.847 -23.01,74.14 -32.34,106.777 -1.65,15.938 29.2,20.195 19.52,36.824" /><path
         id="path122"
         style="fill:#000000;fill-opacity:1;fill-rule:nonzero;stroke:none"
         d="m 1684.32,1790.57 c -4.4,-15.19 9.21,-54.67 -18.56,-60.8 6.22,19.27 7.29,42.33 18.56,60.8" /><path
         id="path124"
         style="fill:#000000;fill-opacity:1;fill-rule:nonzero;stroke:none"
         d="m 1703.06,1402.01 c 24.59,-14.02 14.14,-52.45 32.01,-73.76 -7.69,-7.32 7.14,-27.73 -6.86,-28.3 -18.44,35.28 -27.44,59.93 -25.15,102.06" /><path
         id="path126"
         style="fill:#000000;fill-opacity:1;fill-rule:nonzero;stroke:none"
         d="m 1753.02,392.199 8,0.321 c 0.09,-26.993 3.5,-61.895 10.48,-85.633 11.01,-0.547 4.61,9.199 13.49,12.547 4.11,-2.821 23.43,-10.059 12.88,-21.493 -11.33,-16.457 -32.57,-11.32 -44.8,-5.82 -10.32,32.617 -6.83,69.793 -0.05,100.078" /><path
         id="path128"
         style="fill:#ffffff;fill-opacity:1;fill-rule:nonzero;stroke:none"
         d="m 1689.61,2326.21 c 20.11,-2.18 8.98,25.4 25,25.05 3.88,3.16 7.65,9.32 4.52,12.19 13.17,20.55 35.4,-9.58 47.31,17.93 -1.15,3.96 1.67,8.07 -2.4,9.91 20.99,0.85 50.52,13.06 64.63,-14.39 21.07,-1.14 34.06,-25.63 42.63,-39.31 -5.6,-10.23 6.78,-18.74 6.25,-30.76 l -5.19,4.79 c -3.91,-2.17 -0.69,-8.04 -1.52,-12.08 l 2.08,-1.91 4.79,5.2 c 18.83,-44.28 -36.1,-47.5 -32.57,-85.39 l -6.66,-8.28 c -0.87,-3.04 -6.52,12.75 -15.32,7.38 -10.66,-8.43 5.59,-38.81 -14.8,-29.62 9.93,26.42 -28.74,41.87 -29.5,60.87 -17.72,17.27 -25.12,52.01 -52.1,50.92 -10.83,-4.45 -17.3,-17.72 -13.94,-26.59 34.73,7.41 29.52,-36.83 54.74,-41.83 12.84,-20.49 24.29,-56.04 15.27,-80.43 l -16.71,-7.68 c -10.24,30.61 -19.21,54.27 -39.36,82.47 -18.35,8.26 -20.61,39.19 -49.22,29.03 -17.2,29.33 8.16,45.37 12.07,72.53" /><path
         id="path130"
         style="fill:#000000;fill-opacity:1;fill-rule:nonzero;stroke:none"
         d="m 1727.71,1806.34 c 7.48,-11.71 -10.7,-32.46 -10.13,-46.44 l -12.11,2.5 c -0.81,19.98 -6.9,46.77 22.24,43.94" /><path
         id="path132"
         style="fill:#000000;fill-opacity:1;fill-rule:nonzero;stroke:none"
         d="m 1791.81,867.18 c 7.74,6.308 17.57,10.711 25.86,4.043 11.58,10.468 27.56,11.113 43.6,10.769 l 0.49,-11.98 c 10.78,5.437 4.22,19.187 18.28,17.754 13.28,-6.465 -2.93,-26.145 13.38,-33.496 3.47,-11.856 15.48,-36.407 1.94,-47.961 -18.15,3.273 -23.95,23.046 -44.06,25.246 l -12.47,11.504 -1.76,-31.106 c -8.7,17.668 -38.41,9.445 -39.49,36.438 -7.33,7.714 -11.84,-4.493 -16.71,-7.696 -4.43,-14.179 10.85,-20.586 6.26,-30.761 -12.07,1.504 -27.91,21.894 -32.52,36.707 -10.44,10.597 7.94,26.359 -9.38,33.664 14.4,-9.434 36.98,1.504 46.58,-13.125" /><path
         id="path134"
         style="fill:#000000;fill-opacity:1;fill-rule:nonzero;stroke:none"
         d="m 1780.79,965.801 c 5.26,-5.789 2.82,-19.91 -6.08,-22.266 l -12.08,1.516 c 4.63,9.199 4.15,21.191 18.16,20.75" /><path
         id="path136"
         style="fill:#000000;fill-opacity:1;fill-rule:nonzero;stroke:none"
         d="m 1761.48,1368.35 11.99,0.48 6.19,-78.82 c -11.74,-6.48 -18.39,9.26 -22.54,13.11 -2.05,25.93 -10.94,47.6 4.36,65.23" /><path
         id="path138"
         style="fill:#000000;fill-opacity:1;fill-rule:nonzero;stroke:none"
         d="m 1758.12,1229.09 c 11.68,-16.53 21.04,-25.15 15.77,-43.39 -5.52,12.79 -10.17,28.61 -15.77,43.39" /><path
         id="path140"
         style="fill:#000000;fill-opacity:1;fill-rule:nonzero;stroke:none"
         d="m 1812.84,397.637 4.99,0.195 7.11,-100.789 c -2.81,-5.117 -7.8,-5.313 -11.91,-2.5 -5.61,14.805 -1.47,35.977 -10.11,51.641 7.47,13.32 3.58,35.195 9.92,51.453" /><path
         id="path142"
         style="fill:#000000;fill-opacity:1;fill-rule:nonzero;stroke:none"
         d="m 1812.25,486.691 11.98,0.489 -4.8,-5.215 c 1.08,-1.953 3.13,-2.871 5.12,-2.785 -8.67,-8.368 1.73,-17.95 -1.94,-26.102 l -11.91,-2.492 c 4.47,13.203 1.15,21.066 1.55,36.105" /><path
         id="path144"
         style="fill:#000000;fill-opacity:1;fill-rule:nonzero;stroke:none"
         d="m 1771.54,1613.96 c 9.18,20.38 15.48,37.66 30.85,53.29 12.98,-23.49 -17.03,-48.72 -21.26,-67.92 l -6.5,-12.26 c -17.03,0.31 -8.81,19.66 -3.09,26.89" /><path
         id="path146"
         style="fill:#000000;fill-opacity:1;fill-rule:nonzero;stroke:none"
         d="m 1766.14,1969.03 c 6.25,-5.75 3.4,-9.87 0.7,-16.98 l -4.8,-5.2 c -6.16,3.75 -7.81,19.7 4.1,22.18" /><path
         id="path148"
         style="fill:#000000;fill-opacity:1;fill-rule:nonzero;stroke:none"
         d="m 1802.95,1011.74 c -1.86,-3.08 -0.59,-10.03 -6.7,-7.28 l -0.27,6.99 6.97,0.29" /><path
         id="path150"
         style="fill:#000000;fill-opacity:1;fill-rule:nonzero;stroke:none"
         d="m 1784.54,1515.39 c 3.87,3.18 11.87,3.5 11.58,10.49 -13.16,3.47 4.59,10.19 2.43,14.11 l 2.01,0.08 c 2.99,-24.9 0.98,-49 -16.36,-65.71 -13.4,9.46 -7.09,26.73 0.34,41.03" /><path
         id="path152"
         style="fill:#000000;fill-opacity:1;fill-rule:nonzero;stroke:none"
         d="m 1814.73,1067.26 c 3.06,-1.88 7.18,-4.71 5.35,-8.77 -7.84,-4.34 -0.67,-8.07 0.49,-12.01 4.74,6.2 10.66,8.43 16.89,2.69 l 0.7,-16.99 c -14.03,0.43 -29.22,4.81 -36.58,13.52 7.8,5.33 1.15,21.07 13.15,21.56" /><path
         id="path154"
         style="fill:#000000;fill-opacity:1;fill-rule:nonzero;stroke:none"
         d="m 1755.17,2313.87 c 16.81,4.68 19.74,-18.22 32.22,-29.71 1.37,-8.96 -5.22,-19.24 -14.5,-12.61 2.2,20.11 -38.82,19.45 -17.72,42.32" /><path
         id="path156"
         style="fill:#ffffff;fill-opacity:1;fill-rule:nonzero;stroke:none"
         d="m 1828.08,688.496 2,0.09 c 2.24,-5.93 -4.51,-12.207 -11.63,-9.492 -2.24,5.918 5.72,7.234 9.63,9.402" /><path
         id="path158"
         style="fill:#000000;fill-opacity:1;fill-rule:nonzero;stroke:none"
         d="m 1815.83,1163.37 7.47,-11.7 c 5.76,6.25 13.74,6.56 19,0.76 9.2,-4.62 -3.25,-19.12 -5.94,-26.25 -4.76,-6.19 -10.04,0.59 -14.2,4.44 -11.79,-5.49 -1.79,-30.1 -21.29,-17.87 1.39,15.07 2.33,41.11 14.96,50.62" /><path
         id="path160"
         style="fill:#000000;fill-opacity:1;fill-rule:nonzero;stroke:none"
         d="m 1809.59,1317.26 c 13.31,-7.47 -5.02,-24.22 8.36,-33.69 0.19,20.02 26.14,22.09 22.53,36.95 5.87,3.23 9.16,-3.64 12.35,-8.53 -14.24,-18.58 -18.36,-40.77 -18.44,-63.78 -5.86,-3.24 -10.13,-21.44 -3.73,-31.19 l 2.09,-1.91 c -2.68,-8.11 -10.84,-4.45 -16.79,-5.68 -9.81,19.62 -3.41,34.9 0.77,55.07 -1.15,3.97 1.58,10.08 -3.49,11.87 -9.91,-2.39 0.47,13.02 -9.6,14.62 0.65,9.03 5.36,16.25 5.95,26.27" /><path
         id="path162"
         style="fill:#000000;fill-opacity:1;fill-rule:nonzero;stroke:none"
         d="m 1808.38,1396.28 c 3.37,-8.88 1.61,-14.96 -1.02,-24.06 -14.03,0.43 -3.62,14.86 -5.9,21.78 1.89,3.08 4.93,2.2 6.92,2.28" /><path
         id="path164"
         style="fill:#000000;fill-opacity:1;fill-rule:nonzero;stroke:none"
         d="m 1781.78,2348.98 c 9.74,6.39 7.47,-11.71 15.11,-2.4 22.49,-12.09 39.77,-18.4 39.98,-48.42 -1.67,-8.06 -6.39,-15.27 -6.02,-24.26 -12.21,29.53 -52.67,39.91 -55.97,71.79 l 6.9,3.29" /><path
         id="path166"
         style="fill:#000000;fill-opacity:1;fill-rule:nonzero;stroke:none"
         d="m 1861.48,1641.62 c 10.84,4.45 8.45,-10.66 9.61,-14.61 -18.96,-25.8 -29.71,-57.25 -61.23,-69.54 2.58,35.13 37.89,52.58 51.62,84.15" /><path
         id="path168"
         style="fill:#000000;fill-opacity:1;fill-rule:nonzero;stroke:none"
         d="m 1801.75,2275.73 c 11.23,-5.55 5.72,-17.78 11.08,-26.57 l -4.79,-5.2 c -15.95,-1.66 -32.4,33.71 -6.29,31.77" /><path
         id="path170"
         style="fill:#000000;fill-opacity:1;fill-rule:nonzero;stroke:none"
         d="m 1846.62,1119.6 c 9.08,-1.64 20.07,-1.19 12.69,-16.5 l -2.92,-2.11 c 1.08,-1.97 -23.43,10.04 -9.77,18.61" /><path
         id="path172"
         style="fill:#000000;fill-opacity:1;fill-rule:nonzero;stroke:none"
         d="m 1860.66,1242.27 c 2.09,-1.91 7.24,-5.72 5.49,-11.79 -5.81,-5.23 -9.51,-12.4 -18.62,-9.77 -4.48,11.84 6.39,15.28 13.13,21.56" /><path
         id="path174"
         style="fill:#000000;fill-opacity:1;fill-rule:nonzero;stroke:none"
         d="m 1898.82,1066.67 c 5.12,-2.79 2.31,-7.93 3.47,-11.87 -7.37,-15.34 -20.85,-3.85 -31.85,-4.28 -17.79,19.28 19.01,24.77 28.38,16.15" /><path
         id="path176"
         style="fill:#000000;fill-opacity:1;fill-rule:nonzero;stroke:none"
         d="m 1866.21,1278.53 7.06,-1.72 c 2.43,-9.9 -4.31,-17.19 -13.29,-17.56 -1.33,7.96 -0.61,15 6.23,19.28" /><path
         id="path178"
         style="fill:#000000;fill-opacity:1;fill-rule:nonzero;stroke:none"
         d="m 1858.18,1427.32 c 6.15,-3.77 17.05,-1.31 19.45,-11.23 -4.92,-2.2 -5.33,-16.23 -13.7,-7.56 -6.2,4.74 -10.47,11.58 -5.75,18.79" /><path
         id="path180"
         style="fill:#000000;fill-opacity:1;fill-rule:nonzero;stroke:none"
         d="m 1882.07,1183.09 c -11.39,9.53 4.99,25.22 5.75,31.25 l 2.86,3.11 5.41,-9.76 -7.78,-5.33 c 2.16,-3.93 7.03,-0.73 10.08,-1.61 l 0.48,-11.99 -2.01,-0.08 c -5.62,-9.23 7.98,-23.71 -6.72,-31.3 -8.79,-5.35 -24.07,1.03 -21.68,16.14 4.91,2.21 9.83,4.4 13.61,9.57" /><path
         id="path182"
         style="fill:#000000;fill-opacity:1;fill-rule:nonzero;stroke:none"
         d="m 1881.11,1330.17 c -8.14,3.67 -13.66,16.46 -8.04,25.7 2.71,7.1 11.83,4.47 18.79,5.76 1.48,-11.96 -0.11,-22.04 -5.75,-31.27 -2.74,-6.11 7.05,-25.74 -9.02,-24.37 -12.1,2.5 -8.75,18.66 4.02,24.18" /><path
         id="path184"
         style="fill:#000000;fill-opacity:1;fill-rule:nonzero;stroke:none"
         d="m 1876.99,1555.18 c 11.17,-3.54 0.66,-16 0.98,-23.97 -2.82,-4.12 -8.7,-7.37 -11.9,-2.5 -2.53,12.92 3.43,14.16 10.92,26.47" /><path
         id="path186"
         style="fill:#000000;fill-opacity:1;fill-rule:nonzero;stroke:none"
         d="m 1873.55,1862.3 c 3.64,9.16 17.11,22.7 23.58,10.96 -3.47,-13.16 8.77,-18.67 11.17,-28.57 -12.96,23.5 -36.69,-8.49 -55.36,7.76 l 16.42,14.68 4.19,-4.83" /><path
         id="path188"
         style="fill:#000000;fill-opacity:1;fill-rule:nonzero;stroke:none"
         d="m 1896.95,890.461 c 10.52,-12.598 7.98,25.32 25.49,13.027 -3.4,9.871 3.56,11.16 9.39,15.391 28.11,-26.875 72.74,7.957 92.17,-27.266 8.83,4.344 2.45,14.082 4.14,21.172 39.89,3.613 86.07,0.469 126.91,5.137 22.27,-6.106 53.19,-3.848 79.3,-5.801 8.83,4.375 25.17,-3.984 38.17,-3.449 -4.36,-16.18 2.49,-36.922 -1.65,-58.106 l -3.12,2.872 -4.59,-10.196 c -36.89,-3.484 -9.67,65.645 -49.5,36.035 -6.95,-1.277 -11.7,-7.488 -20.82,-4.851 -6.51,12.742 -7.32,32.715 -18.52,37.265 -9.79,-30.41 21.77,-68.156 -8.03,-98.398 -30.3,6.785 -13.05,50.508 -24.97,73.055 l -2.9,21.886 c -17.89,-2.714 -1.14,-21.046 -5.8,-29.257 -5.16,-21.223 17.28,-56.34 -16.45,-63.704 -18.75,18.254 -57.58,-11.355 -54.24,29.817 -8.69,16.66 -25.91,21.98 -37.52,36.523 -5.27,-18.222 12.33,-32.539 1.86,-45.976 -7.31,7.722 -17.7,17.304 -29.67,15.82 -1.74,-6.074 -4.62,-9.199 2.58,-13.906 -1.23,-19.082 -21.79,-5.899 -30.48,-13.262 -24.8,19.023 -25.34,57.031 -51.18,76.992 2.82,-19.894 5.91,-46.797 21.5,-61.172 0.53,-12.988 8.85,-20.664 6.37,-33.789 -16.74,-6.66 -21.58,14.141 -29.94,22.821 3.98,25.187 -31.56,37.765 -18.5,61.32" /><path
         id="path190"
         style="fill:#000000;fill-opacity:1;fill-rule:nonzero;stroke:none"
         d="m 1900.66,1094.76 4.16,-3.83 c -4.65,-8.18 -13.7,-7.56 -18.77,-5.76 -0.37,8.98 8.71,7.35 14.61,9.59" /><path
         id="path192"
         style="fill:#000000;fill-opacity:1;fill-rule:nonzero;stroke:none"
         d="m 1902.73,1266 c 7.13,-2.73 14.41,-9.43 17.69,-16.31 4.6,-14.81 -12.22,-19.51 -21.01,-24.87 -11.78,-5.48 -5.37,8.79 -12.48,11.52 1.55,11.05 3.95,26.17 15.8,29.66" /><path
         id="path194"
         style="fill:#000000;fill-opacity:1;fill-rule:nonzero;stroke:none"
         d="m 1859.16,2044.86 c 23.83,-45.07 8.52,-86.72 20.33,-131.29 l -11.88,-3.48 c -4.77,43.84 -9.68,90.7 -8.45,134.77" /><path
         id="path196"
         style="fill:#000000;fill-opacity:1;fill-rule:nonzero;stroke:none"
         d="m 1906.33,1424.27 c 5.27,-6.8 16.79,-19.34 2.97,-23.91 -7.87,-3.31 -11.83,-4.48 -20.9,-2.83 7.64,9.3 -4.04,25.84 17.93,26.74" /><path
         id="path198"
         style="fill:#000000;fill-opacity:1;fill-rule:nonzero;stroke:none"
         d="m 1890.95,1507.71 7.35,-8.71 c -1.76,-6.07 -12.62,-9.52 -11.99,-0.48 0.87,3.03 1.71,7.07 4.64,9.19" /><path
         id="path200"
         style="fill:#000000;fill-opacity:1;fill-rule:nonzero;stroke:none"
         d="m 1912.1,1331.42 c 2.72,7.11 1.14,21.07 11.14,21.47 14.98,0.62 22.71,-17.09 28.02,-24.89 1.7,-16.93 -29.8,-30.23 -21.75,-55.92 -7.8,19.69 -30.65,-9.25 -29.73,17.8 -9.73,17.63 26.03,24.08 12.32,41.54" /><path
         id="path202"
         style="fill:#000000;fill-opacity:1;fill-rule:nonzero;stroke:none"
         d="m 1903.07,1554.23 6.99,0.29 c -0.75,-6.03 7.08,-26.73 -5.9,-27.25 l -9.12,2.61 c 2.67,8.13 1.31,17.09 8.03,24.35" /><path
         id="path204"
         style="fill:#000000;fill-opacity:1;fill-rule:nonzero;stroke:none"
         d="m 1925.53,1172.84 c 9,0.36 15.44,-10.39 22.26,-6.13 -0.95,-1.03 -2.87,-3.09 -1.78,-5.06 l 23.49,12.97 9.68,-16.64 c -24.81,-4.98 -0.63,-34.03 -27.83,-29.12 -11.97,-1.5 -23.95,-1.98 -33.27,5.65 -12.51,12.51 -1.13,27.97 7.45,38.33" /><path
         id="path206"
         style="fill:#000000;fill-opacity:1;fill-rule:nonzero;stroke:none"
         d="m 1946.77,1068.61 5.4,-9.77 c -4.67,-8.22 -15.54,-11.66 -25.58,-11.07 -24.75,18.02 10.91,27.46 20.18,20.84" /><path
         id="path208"
         style="fill:#000000;fill-opacity:1;fill-rule:nonzero;stroke:none"
         d="m 1911.66,1465.52 c 11.8,5.47 14.35,-8.44 19.47,-11.22 -5.71,-7.24 -19.69,-7.82 -25.97,-1.06 -2.24,5.91 1.55,11.08 6.5,12.28" /><path
         id="path210"
         style="fill:#000000;fill-opacity:1;fill-rule:nonzero;stroke:none"
         d="m 1916.89,1681.91 c 8.13,-2.68 4.45,-10.84 5.69,-16.79 -1.87,-3.07 -6.78,-5.28 -6.62,-9.28 l 2.11,-2.91 c -3.91,-2.17 -10.66,-8.45 -15.9,-2.66 0.51,12.05 5.06,23.24 14.72,31.64" /><path
         id="path212"
         style="fill:#000000;fill-opacity:1;fill-rule:nonzero;stroke:none"
         d="m 1951.12,1207.9 c 6.98,1.29 12.09,-1.52 17.29,-6.31 -6.32,-17.25 -23.26,-18.94 -35.37,-16.44 -18.59,14.26 10.35,16.42 18.08,22.75" /><path
         id="path214"
         style="fill:#000000;fill-opacity:1;fill-rule:nonzero;stroke:none"
         d="m 1961.67,1244.37 c 19.38,15.8 -20.09,26.19 3.34,41.16 -0.41,9.99 -8.98,23.66 2.74,31.13 6.83,4.29 21.81,4.88 27.26,-5.89 -7.56,-11.32 0.41,-35.02 -15.54,-36.66 16.97,-23.34 -17.72,-31.75 -16.83,-53.73 -9.75,-6.38 -21.55,-11.87 -33.77,-6.38 1.38,15.08 13.6,34.59 32.8,30.37" /><path
         id="path216"
         style="fill:#000000;fill-opacity:1;fill-rule:nonzero;stroke:none"
         d="m 1964.5,1100.36 c 0.36,-9 -9.71,-7.41 -15.7,-7.65 2.7,7.11 7.47,13.32 15.7,7.65" /><path
         id="path218"
         style="fill:#000000;fill-opacity:1;fill-rule:nonzero;stroke:none"
         d="m 1958.89,1436.41 c 8.06,-1.67 12.51,-12.51 7.76,-18.72 -1.59,-10.07 -11.62,-9.46 -18.59,-10.76 -16.39,9.34 -4.2,29.86 10.83,29.48" /><path
         id="path220"
         style="fill:#000000;fill-opacity:1;fill-rule:nonzero;stroke:none"
         d="m 1942.51,1543.83 c 6.04,-0.76 9.36,-8.63 9.61,-14.62 -4.8,-5.19 -15,-0.6 -17.19,4.31 -0.16,4 4.72,7.19 7.58,10.31" /><path
         id="path222"
         style="fill:#000000;fill-opacity:1;fill-rule:nonzero;stroke:none"
         d="m 1944,1605.94 c 15.94,1.64 17.71,-17.3 34.82,-19.61 l 0.13,-3.01 c -13.66,-8.54 -27.1,1.92 -38.38,8.46 -0.21,5.01 -2.45,10.92 3.43,14.16" /><path
         id="path224"
         style="fill:#000000;fill-opacity:1;fill-rule:nonzero;stroke:none"
         d="m 1956.36,1671.5 c 3.29,-6.87 -3.8,-5.17 -6.71,-7.28 l -5.2,4.8 c 1.83,4.07 7.94,1.31 11.91,2.48" /><path
         id="path226"
         style="fill:#000000;fill-opacity:1;fill-rule:nonzero;stroke:none"
         d="m 1959.41,1719.66 c 11.06,-1.56 27.66,-15.9 33.18,-3.65 9.3,17.37 26.05,-0.97 40.96,1.66 8.72,-17.67 21.14,-3.15 34.47,-10.63 l 0.36,-8.99 c -38.85,-4.57 -83.58,-12.39 -108.49,9.61 l -17.06,1.32 c -3.57,13.87 11.87,3.48 16.58,10.68" /><path
         id="path228"
         style="fill:#000000;fill-opacity:1;fill-rule:nonzero;stroke:none"
         d="m 1961.84,1659.71 2.09,-1.93 c 8.97,0.36 1.75,6.09 1.63,9.08 7.06,-1.7 16.42,-10.34 24.67,-16 3.1,-2.89 -0.56,-11.04 -6.53,-12.29 l -33.16,3.66 c -4.36,8.84 6.42,14.27 11.3,17.48" /><path
         id="path230"
         style="fill:#000000;fill-opacity:1;fill-rule:nonzero;stroke:none"
         d="m 1989.94,1065.36 c 1.77,-18.94 28.1,-1.86 22.87,-21.11 -10.79,-5.43 -26.35,7.96 -34.26,5.63 3.68,8.16 1.44,14.08 11.39,15.48" /><path
         id="path232"
         style="fill:#000000;fill-opacity:1;fill-rule:nonzero;stroke:none"
         d="m 1988.42,1226.43 c 4.03,-0.83 5.83,4.25 9.91,2.39 7.38,-9.71 -7.08,-23.28 -8.53,-36.37 -4.92,-2.18 -15.78,-5.64 -17.2,4.3 1.68,8.09 -0.05,26.02 15.82,29.68" /><path
         id="path234"
         style="fill:#000000;fill-opacity:1;fill-rule:nonzero;stroke:none"
         d="m 1998.26,1353.92 c 9.44,-10.63 1.64,-15.94 3.17,-28.89 l -17.06,1.31 c 8.63,9.37 -0.98,24 13.89,27.58" /><path
         id="path236"
         style="fill:#000000;fill-opacity:1;fill-rule:nonzero;stroke:none"
         d="m 2009.88,1289.35 c 6.49,-11.74 2.05,-25.94 -3.53,-36.17 -2.84,-4.13 -10.83,-4.46 -14.07,1.42 7.54,11.33 9.01,24.4 17.6,34.75" /><path
         id="path238"
         style="fill:#000000;fill-opacity:1;fill-rule:nonzero;stroke:none"
         d="m 1986.46,1521.59 c 6.15,-3.75 20.06,-1.2 14.59,-14.42 l -17.11,2.31 2.52,12.11" /><path
         id="path240"
         style="fill:#000000;fill-opacity:1;fill-rule:nonzero;stroke:none"
         d="m 2010.31,1155.25 c 5.17,-3.79 12.11,-2.5 12.4,-9.5 1.27,-6.95 -6.51,-12.26 -13.3,-17.55 l -7.11,2.72 c 2.7,7.12 1.31,17.06 8.01,24.33" /><path
         id="path242"
         style="fill:#000000;fill-opacity:1;fill-rule:nonzero;stroke:none"
         d="m 1994.28,1550.94 3.31,-7.88 -11.91,-2.48 c -0.2,5 1.51,12.07 8.6,10.36" /><path
         id="path244"
         style="fill:#000000;fill-opacity:1;fill-rule:nonzero;stroke:none"
         d="m 2032.63,1271.26 c 21.02,-0.15 19.53,36.82 42.21,20.71 1.52,-12.92 -15.39,-15.63 -25.3,-18.01 15.92,-22.39 -6.81,-54.34 -5,-74.28 -11.66,-8.48 -23.7,-7.95 -35.84,-4.45 0.85,28.04 18.66,57.8 23.93,76.03" /><path
         id="path246"
         style="fill:#000000;fill-opacity:1;fill-rule:nonzero;stroke:none"
         d="m 2020.21,1330.8 c 11.79,5.49 14.31,-7.43 17.59,-14.3 -3.7,-7.15 -9.25,-18.39 -18.48,-12.76 -9.33,7.64 -15.84,20.37 0.89,27.06" /><path
         id="path248"
         style="fill:#000000;fill-opacity:1;fill-rule:nonzero;stroke:none"
         d="m 2024.22,1602.2 c 4.24,-5.85 18.23,-5.28 14.69,-16.44 -12.77,-6.52 -26.03,-0.05 -36.26,5.55 -6.6,14.74 9.42,14.39 21.57,10.89" /><path
         id="path250"
         style="fill:#000000;fill-opacity:1;fill-rule:nonzero;stroke:none"
         d="m 2051.88,796.652 0.2,-5 -11.99,-0.488 -0.2,5 11.99,0.488" /><path
         id="path252"
         style="fill:#000000;fill-opacity:1;fill-rule:nonzero;stroke:none"
         d="m 2044.36,1105.59 c 7.39,-9.72 23.39,-9.07 36.45,-10.52 12.93,-22.5 -20.29,-17.83 -31.4,-15.3 -17.95,-1.71 -16.71,17.35 -5.05,25.82" /><path
         id="path254"
         style="fill:#000000;fill-opacity:1;fill-rule:nonzero;stroke:none"
         d="m 2018.71,1664.02 c 11.36,-8.56 35.93,2.44 36.75,-17.54 -6.01,-0.24 -7.65,-9.31 -13.63,-9.55 -11.12,2.55 -23.6,14.05 -23.12,27.09" /><path
         id="path256"
         style="fill:#000000;fill-opacity:1;fill-rule:nonzero;stroke:none"
         d="m 2056.11,1161.11 c 9.84,4.41 16.27,-6.35 23.99,0.97 9.91,2.41 13.83,-20.44 6.05,-25.76 -9.75,-6.41 -23.77,-5.98 -35.78,-6.46 -2.23,5.91 -9.04,25.64 5.74,31.25" /><path
         id="path258"
         style="fill:#000000;fill-opacity:1;fill-rule:nonzero;stroke:none"
         d="m 2041.97,1386.73 4.98,0.2 -1.42,-14.06 -10.15,3.59 c -0.21,5 4.7,7.19 6.59,10.27" /><path
         id="path260"
         style="fill:#ffffff;fill-opacity:1;fill-rule:nonzero;stroke:none"
         d="m 2068.31,909.406 c 20.2,-4.191 4.03,-24.844 16.53,-37.355 -8.82,-4.363 1.66,-15.957 -11.41,-14.481 -1.68,16.953 -10.42,34.61 -5.12,51.836" /><path
         id="path262"
         style="fill:#000000;fill-opacity:1;fill-rule:nonzero;stroke:none"
         d="m 2055.61,1346.24 c 5.03,-0.8 10.91,2.45 15.07,-1.38 3.49,-11.88 -12.33,-16.51 -16.29,-17.68 -8.09,1.67 -6.64,15.75 1.22,19.06" /><path
         id="path264"
         style="fill:#000000;fill-opacity:1;fill-rule:nonzero;stroke:none"
         d="m 2067.75,1219.64 c 6.39,15.27 18.79,5.76 28.79,6.17 7.23,-5.7 12.46,-11.5 10.87,-21.58 -20.7,-7.85 -4.02,-24.18 -22.8,-29.94 -6.88,-3.3 -18.79,-5.76 -24.1,2.01 -2.74,17.91 19.79,29.82 7.24,43.34" /><path
         id="path266"
         style="fill:#000000;fill-opacity:1;fill-rule:nonzero;stroke:none"
         d="m 2066.86,1488.83 10.39,-9.59 c -5.64,-9.24 -18.42,-14.77 -26.79,-6.1 5.76,6.25 11.68,8.48 16.4,15.69" /><path
         id="path268"
         style="fill:#000000;fill-opacity:1;fill-rule:nonzero;stroke:none"
         d="m 2078.37,1328.16 c 10.03,-0.61 0.32,-8 0.41,-9.98 l -5.13,2.77 4.72,7.21" /><path
         id="path270"
         style="fill:#000000;fill-opacity:1;fill-rule:nonzero;stroke:none"
         d="m 2106.09,1286.24 c 10.23,-5.58 15.07,-1.38 19.59,-14.22 -10.71,-7.44 -27.25,-19.12 -38.99,-25.6 -9.78,18.63 8.78,30.39 19.4,39.82" /><path
         id="path272"
         style="fill:#000000;fill-opacity:1;fill-rule:nonzero;stroke:none"
         d="m 2081.75,1417.36 c 6,0.25 10.16,-3.58 17.11,-2.29 -0.6,-10.04 22,-24.13 3.46,-35.91 -17.03,0.32 -14.64,15.43 -25.08,26.03 -0.2,4.98 0.63,9.02 4.51,12.17" /><path
         id="path274"
         style="fill:#000000;fill-opacity:1;fill-rule:nonzero;stroke:none"
         d="m 2087.71,1566.73 c 1.29,-6.94 -3.55,-11.15 -1.31,-17.06 l -15.2,4.39 c 7.84,4.32 3.12,22.13 16.51,12.67" /><path
         id="path276"
         style="fill:#000000;fill-opacity:1;fill-rule:nonzero;stroke:none"
         d="m 2070.77,1688.14 c 24.93,2.02 59.35,17.42 72.51,-11.06 3.36,-8.88 -6.76,-6.29 -9.58,-10.4 -18.98,-0.77 -36.75,17.52 -52.45,9.88 -2.27,6.91 -13.11,2.48 -10.48,11.58" /><path
         id="path278"
         style="fill:#000000;fill-opacity:1;fill-rule:nonzero;stroke:none"
         d="m 2098.72,1468.09 c 7.98,0.32 15.39,-9.39 19.67,-16.2 1.41,-9.94 -10.59,-10.45 -15.34,-16.64 l -17.15,3.3 c -3.52,12.87 3.94,26.19 12.82,29.54" /><path
         id="path280"
         style="fill:#000000;fill-opacity:1;fill-rule:nonzero;stroke:none"
         d="m 2081.89,1537.46 c 2,0.08 14.7,7.62 17.11,-2.29 -4.71,-7.21 -17.78,-5.73 -17.11,2.29" /><path
         id="path282"
         style="fill:#000000;fill-opacity:1;fill-rule:nonzero;stroke:none"
         d="m 2125.78,1219.99 c 7.56,11.32 15.99,0.65 19.31,-7.22 0.5,-12 -7.09,-22.31 -10.64,-33.47 -18.79,-5.77 -2.62,-34.12 -15.13,-46.64 -7.03,0.71 -17.86,-3.73 -19.27,6.22 19.26,18.79 14.81,54.64 25.73,81.11" /><path
         id="path284"
         style="fill:#000000;fill-opacity:1;fill-rule:nonzero;stroke:none"
         d="m 2141.68,1124.54 c -22.02,-24.9 45.94,-47.16 -12.13,-46.52 -20.44,10.18 2.7,32.14 5.03,48.25 3.01,0.13 5.97,1.24 7.1,-1.73" /><path
         id="path286"
         style="fill:#000000;fill-opacity:1;fill-rule:nonzero;stroke:none"
         d="m 2140.81,1392.75 c 9.1,-2.64 12.51,-12.52 14.83,-20.43 -20.1,2.18 -5.92,-51.27 -35.09,-23.44 -8.83,20.65 10.71,32.47 20.26,43.87" /><path
         id="path288"
         style="fill:#000000;fill-opacity:1;fill-rule:nonzero;stroke:none"
         d="m 2128.42,1328.18 c 10.07,-1.59 9.46,-11.61 10.8,-19.59 l -9.83,-4.4 c -9.24,5.65 -2.66,15.92 -0.97,23.99" /><path
         id="path290"
         style="fill:#000000;fill-opacity:1;fill-rule:nonzero;stroke:none"
         d="m 2153.22,1259.13 c 15.15,-3.4 2.73,-17.9 3.06,-25.9 -7.96,-1.3 -22.94,-1.92 -26.48,10.94 1.68,8.08 12.03,24.51 23.42,14.96" /><path
         id="path292"
         style="fill:#000000;fill-opacity:1;fill-rule:nonzero;stroke:none"
         d="m 2127.4,1476.27 1.89,3.07 c 2.16,-3.92 7.27,-6.71 5.48,-11.78 l -8.8,-5.36 c -0.21,5 -8.55,13.66 1.43,14.07" /><path
         id="path294"
         style="fill:#000000;fill-opacity:1;fill-rule:nonzero;stroke:none"
         d="m 2169.67,1149.71 c 4.16,-3.84 11.12,-2.54 12.4,-9.5 -6.52,-12.27 -24.62,-10.02 -33.89,-3.36 4.7,7.19 8.22,19.31 21.49,12.86" /><path
         id="path296"
         style="fill:#000000;fill-opacity:1;fill-rule:nonzero;stroke:none"
         d="m 2143.14,1556.98 c 9.08,-1.65 12.33,-7.52 19.59,-14.23 -7.85,-3.32 8.49,-11.68 -3.62,-9.15 -4.8,-5.21 -20.91,-2.86 -24.25,6.01 -1.29,6.97 -0.7,17 8.28,17.37" /><path
         id="path298"
         style="fill:#000000;fill-opacity:1;fill-rule:nonzero;stroke:none"
         d="m 2130.48,1647.53 c 9.91,2.4 27.68,8.12 36.17,-3.54 1.32,-7.96 -7.6,-10.31 -11.51,-12.47 -11.87,-3.48 -27.1,1.9 -24.66,16.01" /><path
         id="path300"
         style="fill:#000000;fill-opacity:1;fill-rule:nonzero;stroke:none"
         d="m 2139.12,1606.85 c 6.08,-1.77 10.24,-5.6 12.48,-11.52 l 0.29,-6.99 c -15.72,-7.64 -16.28,6.35 -12.77,18.51" /><path
         id="path302"
         style="fill:#000000;fill-opacity:1;fill-rule:nonzero;stroke:none"
         d="m 2160.66,1199.39 c 2.43,14.11 22.38,15.91 17.72,31.73 2.55,11.13 -5.74,42.82 10.32,41.47 6.84,4.27 12.76,6.52 23.78,5.96 5.44,-10.78 -6.02,-24.26 -15.8,-29.65 23.46,-11.08 -12.11,-22.54 1.66,-40.98 -10.38,-15.44 -0.65,-58.06 -35.96,-51.51 -9.15,3.64 -9.59,14.63 -5.84,20.79 13.87,3.55 10.42,14.43 4.12,22.19" /><path
         id="path304"
         style="fill:#000000;fill-opacity:1;fill-rule:nonzero;stroke:none"
         d="m 2181.91,1366.38 c 5.2,-4.81 2.48,-11.91 3.68,-16.88 l -14.59,-10.58 8.48,-11.68 -14.62,-9.57 c -15.59,14.36 12.14,21.5 3.37,40.15 3.81,5.18 8.68,8.36 13.68,8.56" /><path
         id="path306"
         style="fill:#000000;fill-opacity:1;fill-rule:nonzero;stroke:none"
         d="m 2200.96,797.688 c 2.11,-2.911 -8.67,-8.36 -9.71,-7.403 -8.25,5.664 4.31,17.188 9.71,7.403" /><path
         id="path308"
         style="fill:#000000;fill-opacity:1;fill-rule:nonzero;stroke:none"
         d="m 2172.45,1673.26 c 14.36,-8.44 40.1,-1.38 55.57,-12.76 -12.17,-20.52 -20.84,20.16 -36.17,3.54 2.28,-6.93 -14.63,-9.61 -21.77,-5.9 l -4.33,7.83 8.83,4.36 -2.13,2.93" /><path
         id="path310"
         style="fill:#000000;fill-opacity:1;fill-rule:nonzero;stroke:none"
         d="m 2175.1,1534.24 c 13.94,1.57 15.27,-6.38 29.17,-3.82 3.37,-8.88 -6.22,-19.27 -18.37,-15.76 -9.87,-3.41 -10.48,11.59 -10.8,19.58" /><path
         id="path312"
         style="fill:#000000;fill-opacity:1;fill-rule:nonzero;stroke:none"
         d="m 2209.43,1107.28 c -3.36,-16.16 26.25,-5.93 29.61,-14.81 l 7,0.3 c -1.51,-12.09 -13.33,-16.57 -23.01,-24.97 -7.35,8.72 -41.29,6.35 -22.12,27.13 l 8.52,12.35" /><path
         id="path314"
         style="fill:#000000;fill-opacity:1;fill-rule:nonzero;stroke:none"
         d="m 2219.5,858.488 c 17.16,-3.3 18.05,-25.293 28.57,-37.871 -10.71,-7.453 -21.59,-10.879 -31.82,-5.305 -9.48,11.622 -5.25,30.821 3.25,43.176" /><path
         id="path316"
         style="fill:#000000;fill-opacity:1;fill-rule:nonzero;stroke:none"
         d="m 2207.88,1441.5 c 0.4,-10 2.76,-18.91 -11.1,-22.46 -15.19,4.37 -4.42,34.84 11.1,22.46" /><path
         id="path318"
         style="fill:#000000;fill-opacity:1;fill-rule:nonzero;stroke:none"
         d="m 2229.69,1372.32 c -9.5,-12.39 9.48,-11.62 4.06,-25.84 -11.54,-11.48 -14.13,-21.6 -30.07,-23.26 -18.39,9.27 6.63,33.3 6.91,51.32 l 19.1,-2.22" /><path
         id="path320"
         style="fill:#000000;fill-opacity:1;fill-rule:nonzero;stroke:none"
         d="m 2219.41,1033.62 c 3.12,-2.87 7.15,-3.71 10.2,-4.58 l -16.62,-9.67 6.42,14.25" /><path
         id="path322"
         style="fill:#000000;fill-opacity:1;fill-rule:nonzero;stroke:none"
         d="m 2215.17,1631.95 7.32,-7.71 c -3.76,-6.16 -12.67,-8.52 -21.7,-7.89 -13.51,12.47 5.28,18.24 14.38,15.6" /><path
         id="path324"
         style="fill:#000000;fill-opacity:1;fill-rule:nonzero;stroke:none"
         d="m 2217.84,1491.93 c 1.54,-12.94 9.93,-22.61 -5.86,-28.25 -16.24,5.36 -3.25,30.89 5.86,28.25" /><path
         id="path326"
         style="fill:#000000;fill-opacity:1;fill-rule:nonzero;stroke:none"
         d="m 2229.54,1154.15 c 11.79,5.47 7.41,-9.72 12.56,-13.51 l -21.79,-5.89 c 2.76,6.12 0.44,14.03 9.23,19.4" /><path
         id="path328"
         style="fill:#000000;fill-opacity:1;fill-rule:nonzero;stroke:none"
         d="m 2220.93,1416.01 14.98,0.6 c 1.25,-5.95 -2.56,-11.11 -7.51,-12.3 l -9.06,1.62 c -1.18,3.97 3.78,5.16 1.59,10.08" /><path
         id="path330"
         style="fill:#000000;fill-opacity:1;fill-rule:nonzero;stroke:none"
         d="m 2251.43,1256.11 c 6.75,6.28 6.26,18.28 14.14,21.6 5.99,0.23 10.07,-1.6 14.27,-6.43 -1.76,-6.09 -4.23,-19.18 -5.82,-29.26 -11.08,1.55 -7.54,-11.32 -11.34,-16.48 13.31,-7.46 -4.35,-16.19 -2.11,-22.11 l -20.98,-0.85 c -11.92,22.56 26.84,29.11 11.84,53.53" /><path
         id="path332"
         style="fill:#000000;fill-opacity:1;fill-rule:nonzero;stroke:none"
         d="m 2241.83,1492.91 c 4.16,-3.84 12.03,-0.51 17.06,-1.3 8.43,14.34 -1.78,43.96 22.24,43.92 5.28,-6.78 3.61,-14.87 -1.02,-24.05 l -4.81,-5.21 c 9.41,-9.61 -6.34,-16.27 -5.93,-26.25 -10.71,-7.44 -19.3,-17.79 -33.41,-15.36 -12.42,10.5 11.47,13.46 5.87,28.25" /><path
         id="path334"
         style="fill:#000000;fill-opacity:1;fill-rule:nonzero;stroke:none"
         d="m 2243.75,1618.09 c 22.96,-23.09 47.2,20.93 63.53,-11.45 -23.51,-12.95 -47.76,-31.95 -71.55,-12.9 -13.35,8.47 2.39,15.11 8.02,24.35" /><path
         id="path336"
         style="fill:#000000;fill-opacity:1;fill-rule:nonzero;stroke:none"
         d="m 2242.05,1437.86 c 3,0.14 5.96,1.25 7.08,-1.7 2.2,-4.92 -1.73,-7.09 -4.59,-10.19 -6.96,-1.29 -5.36,8.79 -2.49,11.89" /><path
         id="path338"
         style="fill:#000000;fill-opacity:1;fill-rule:nonzero;stroke:none"
         d="m 2249.56,1549.27 -7.01,-0.29 6.43,14.28 0.58,-13.99" /><path
         id="path340"
         style="fill:#000000;fill-opacity:1;fill-rule:nonzero;stroke:none"
         d="m 2270.71,1150.81 c 0.13,-2.99 -0.76,-6.05 2.28,-6.91 l -6.78,-5.29 c 2.81,4.14 0.63,9.04 4.5,12.2" /><path
         id="path342"
         style="fill:#000000;fill-opacity:1;fill-rule:nonzero;stroke:none"
         d="m 2284.5,909.152 c 10.97,1.446 27.02,0.098 39.17,-3.41 -1.8,-29.09 6.15,-52.781 15.49,-85.437 l 4.99,0.195 c 3.97,-23.867 -24.77,-6.008 -28.57,-11.164 -17.56,13.301 -7.48,36.73 -24.13,52.082 -1.73,17.949 -18.2,29.277 -6.82,44.746 l -0.13,2.988" /><path
         id="path344"
         style="fill:#000000;fill-opacity:1;fill-rule:nonzero;stroke:none"
         d="m 2283.12,1190.33 c 9.18,-4.63 0.52,-12.97 0.81,-19.99 l -9.99,-0.4 c -1.37,8.96 3.42,14.15 9.18,20.39" /><path
         id="path346"
         style="fill:#000000;fill-opacity:1;fill-rule:nonzero;stroke:none"
         d="m 2286.38,1060.35 c 9,0.36 28.54,12.18 31.39,-8.73 l 0.15,-3.99 c -10.15,3.58 -33.08,1.66 -31.54,12.72" /><path
         id="path348"
         style="fill:#000000;fill-opacity:1;fill-rule:nonzero;stroke:none"
         d="m 2303.51,1107.08 c -4.92,-2.2 -7.72,-7.3 -14.79,-5.58 l -4.29,6.83 c 5.76,6.23 10.87,3.44 19.08,-1.25" /><path
         id="path350"
         style="fill:#000000;fill-opacity:1;fill-rule:nonzero;stroke:none"
         d="m 2279.77,1322.32 c 3,0.11 6.03,-0.77 7.91,2.32 12.28,-6.5 -2.72,-7.11 -2.43,-14.12 -0.75,-6.04 -6.23,5.74 -5.48,11.8" /><path
         id="path352"
         style="fill:#000000;fill-opacity:1;fill-rule:nonzero;stroke:none"
         d="m 2298.5,1354.09 2.27,-6.9 c -8.02,0.67 -10.42,-14.44 -18.78,-5.77 -1.41,9.94 5.28,18.22 16.51,12.67" /><path
         id="path354"
         style="fill:#000000;fill-opacity:1;fill-rule:nonzero;stroke:none"
         d="m 2310.29,1162.4 c -12.06,0.52 -6.7,16.76 -4.99,23.82 10.54,11.45 6.69,32.32 10.04,48.46 25.9,3.05 -4.76,18.84 7.74,31.34 1.59,10.07 2.51,37.14 22.94,26.94 13.26,-6.46 17.78,-19.29 11.32,-32.56 l -21.49,-12.88 c 36.49,-11.52 8.41,-34.7 1.94,-47.96 24.62,-15.02 -13.89,-27.6 -0.26,-43.04 -0.19,-20.02 -23.05,-23.96 -38.28,-18.56 -12.28,6.5 0.08,23 11.04,24.44" /><path
         id="path356"
         style="fill:#000000;fill-opacity:1;fill-rule:nonzero;stroke:none"
         d="m 2305.41,1282.32 c 12.47,-11.51 -3.22,-19.14 -2.74,-31.14 l -12.16,3.52 c 8.67,8.36 -1.08,26.97 14.9,27.62" /><path
         id="path358"
         style="fill:#000000;fill-opacity:1;fill-rule:nonzero;stroke:none"
         d="m 2305.27,1409.43 c -0.6,-10.04 -4.43,-14.2 -16.51,-12.68 l -4.4,9.81 c 5.64,9.23 12.03,-0.51 20.91,2.87" /><path
         id="path360"
         style="fill:#000000;fill-opacity:1;fill-rule:nonzero;stroke:none"
         d="m 2301.24,1582.39 c 5.45,-10.79 -7.62,-9.31 -11.49,-12.48 l -8.21,4.68 c 2.6,10.11 16.47,13.68 19.7,7.8" /><path
         id="path362"
         style="fill:#000000;fill-opacity:1;fill-rule:nonzero;stroke:none"
         d="m 2329.38,1530.49 c 3.47,-11.87 6.21,-29.77 -3.34,-41.16 l 5.2,-4.8 c -15.95,-1.65 -9.7,-32.43 -30.21,-20.24 10.14,21.42 -2.51,61.94 28.35,66.2" /><path
         id="path364"
         style="fill:#000000;fill-opacity:1;fill-rule:nonzero;stroke:none"
         d="m 2349.38,913.781 c 14.02,-0.429 -7.31,-17.297 10.55,-13.554 -2.04,0.918 -3.94,-1.172 -4.87,-3.223 -0.85,-4.024 2.24,-5.899 5.36,-8.789 l 17.93,26.758 c 5.54,-37.805 35.19,-77.637 16.58,-112.422 -11.09,26.562 8.04,48.367 -9.92,71.66 -4.8,-5.215 0.56,-13.984 -4.23,-19.199 -9.91,-2.403 -7.44,10.722 -14.47,11.426 -7.51,-12.305 3.89,-21.856 1.46,-35.958 -5.07,1.797 -6.92,-2.296 -9.79,-5.39 -15.56,13.359 -21.6,39.14 -26.52,61.953 -5.61,14.785 14.33,16.609 17.92,26.738" /><path
         id="path366"
         style="fill:#000000;fill-opacity:1;fill-rule:nonzero;stroke:none"
         d="m 2323.01,1391.12 c 18,0.73 3.7,-16.85 10.77,-18.58 -8.8,-5.36 -7.67,-8.31 -14.87,-3.6 -2.23,5.92 -7.84,20.7 4.1,22.18" /><path
         id="path368"
         style="fill:#000000;fill-opacity:1;fill-rule:nonzero;stroke:none"
         d="m 2331.48,1429.48 c 6.06,-1.75 21.08,-2.14 12.54,-13.49 -7.95,-1.32 -16.42,-14.67 -23.84,-3.99 3.75,6.18 -0.79,19 11.3,17.48" /><path
         id="path370"
         style="fill:#000000;fill-opacity:1;fill-rule:nonzero;stroke:none"
         d="m 2322.84,1568.26 c 5.03,-0.8 10.16,-3.59 15.36,-8.38 -5.64,-9.24 -7.31,-17.33 -19.59,-10.81 l 4.23,19.19" /><path
         id="path372"
         style="fill:#000000;fill-opacity:1;fill-rule:nonzero;stroke:none"
         d="m 2337.36,1333.65 c 6.92,2.28 11.7,7.48 18.85,3.76 7.5,-11.7 -3.05,-23.13 11.29,-31.56 -0.96,-1.03 -2.9,-2.12 -2.82,-4.1 -10.04,0.57 -16.69,16.31 -28.84,19.83 0.84,4.04 2.73,7.12 1.52,12.07" /><path
         id="path374"
         style="fill:#ffffff;fill-opacity:1;fill-rule:nonzero;stroke:none"
         d="m 2361.04,873.234 -3.22,4.871 2.88,3.137 0.34,-8.008" /><path
         id="path376"
         style="fill:#000000;fill-opacity:1;fill-rule:nonzero;stroke:none"
         d="m 2365.86,1173.66 c 4.21,-4.83 1.48,-11.93 2.76,-18.88 l -12.18,4.49 9.42,14.39" /><path
         id="path378"
         style="fill:#000000;fill-opacity:1;fill-rule:nonzero;stroke:none"
         d="m 2363.7,1399.78 c -10.52,-12.44 11.68,-16.55 8.18,-28.69 -5.69,-8.25 2.92,-22.91 -8.94,-26.39 -28.12,1.85 -7.43,34.73 -11.14,52.6 l 11.9,2.48" /><path
         id="path380"
         style="fill:#000000;fill-opacity:1;fill-rule:nonzero;stroke:none"
         d="m 2364.35,1087.55 c 2.08,-1.93 4.24,-5.83 7.19,-4.73 2.46,38.15 4.72,81.26 29.4,114.3 -9.09,26.66 -0.79,44 9.16,70.43 l 12.11,-2.51 c -11.5,-37.49 -10.35,-90.5 -21.92,-126 1.7,-16.94 -4.78,-30.22 -15.16,-45.65 3.33,-7.87 -1.43,-14.07 -8.4,-15.35 l -5.19,4.78 c -1.55,-11.07 -7.97,-0.31 -7.19,4.73" /><path
         id="path382"
         style="fill:#000000;fill-opacity:1;fill-rule:nonzero;stroke:none"
         d="m 2371.75,1200.95 2.01,0.08 c 3.15,-3.89 1.77,-18.97 -6.38,-15.28 -0.26,6 -1.5,11.94 4.37,15.2" /><path
         id="path384"
         style="fill:#000000;fill-opacity:1;fill-rule:nonzero;stroke:none"
         d="m 2364.66,1548.93 14.47,-11.41 c -4.64,-9.2 -20.17,-20.84 -25.78,-6.06 -5.45,10.79 10.6,10.44 11.31,17.47" /><path
         id="path386"
         style="fill:#000000;fill-opacity:1;fill-rule:nonzero;stroke:none"
         d="m 2374.93,1246.11 c 10.27,-6.61 12.88,-21.51 -1.93,-26.1 -4.37,8.82 0.3,17.01 1.93,26.1" /><path
         id="path388"
         style="fill:#000000;fill-opacity:1;fill-rule:nonzero;stroke:none"
         d="m 2417.77,1127.75 c 10.55,60.46 26.55,110.15 34.04,172.52 8.87,3.35 -0.54,12.98 4.14,21.17 2.56,-13.91 8.73,-42.67 -2.57,-60.16 6.6,-14.73 -1.57,-35.08 9.02,-49.67 -16.9,-2.67 -6.42,-14.27 -13.01,-24.55 5.41,-9.78 20.07,-26.2 8.65,-40.66 -11.37,-15.48 -35.29,-18.44 -29.31,-42.23 l -7.71,-7.32 c -2.82,-29.14 -5.96,-50.28 -28.06,-73.2 l 3.09,-1.86 -11.89,-3.5 c 1.4,40.09 23.08,72.99 33.61,109.46" /><path
         id="path390"
         style="fill:#000000;fill-opacity:1;fill-rule:nonzero;stroke:none"
         d="m 2391.05,1366.87 12,0.47 c 4.36,-8.83 -6.35,-16.27 0.97,-23.97 9.87,3.4 12.46,13.5 14.1,22.58 10.15,-3.59 12.75,-18.5 8.15,-28.69 -10.41,-14.44 -5.61,-34.26 -15.03,-48.65 -21.5,12.13 12.82,29.55 -6.85,45.76 l 4.78,5.19 c -1.23,5.96 -8.28,6.68 -11.98,-0.49 8.55,-13.66 -3.91,-27.16 -5.54,-36.25 -12.03,0.51 -10.64,15.59 -11.05,25.58 11.59,10.47 4.9,27.22 10.45,38.47" /><path
         id="path392"
         style="fill:#000000;fill-opacity:1;fill-rule:nonzero;stroke:none"
         d="m 2402.51,1454.39 c 9.87,3.41 4.24,-5.82 9.4,-9.63 l -4.8,-5.2 c -6.1,2.76 -4.34,8.84 -4.6,14.83" /><path
         id="path394"
         style="fill:#000000;fill-opacity:1;fill-rule:nonzero;stroke:none"
         d="m 2405.17,1487.53 c 13.75,6.56 18.05,-25.3 27.15,-2.91 l -0.65,15.99 c 1.99,0.08 2.96,1.12 4.88,3.21 10.98,0.44 -2.03,-24.11 13.16,-28.5 -10.67,-8.43 3.08,-26.89 -15.93,-26.66 -2.09,26.93 -38.51,11.43 -28.61,38.87" /><path
         id="path396"
         style="fill:#000000;fill-opacity:1;fill-rule:nonzero;stroke:none"
         d="m 2423.64,1402.22 c 10.2,-4.61 0.52,-13.01 2.79,-18.92 l -1.9,-3.07 -10.31,7.59 9.42,14.4" /><path
         id="path398"
         style="fill:#000000;fill-opacity:1;fill-rule:nonzero;stroke:none"
         d="m 2422.27,1436.16 c 7.8,5.34 11.28,-6.52 17.4,-9.29 -4.03,0.84 -4.87,-3.19 -7.8,-5.32 -8.04,0.69 -5.41,9.79 -9.6,14.61" /><path
         id="path400"
         style="fill:#000000;fill-opacity:1;fill-rule:nonzero;stroke:none"
         d="m 2432.3,1534.67 c 3.98,0.16 6.14,-3.77 10.06,-1.6 l 0.2,-5 c -4.95,-1.2 -12.98,-0.52 -10.26,6.6" /><path
         id="path402"
         style="fill:#000000;fill-opacity:1;fill-rule:nonzero;stroke:none"
         d="m 2459.24,1585.8 14.37,-8.44 2.7,7.13 c 8.83,4.35 13.81,-19.46 24.18,-4.03 7.12,-2.71 19.23,-5.23 19.68,-16.21 -30.53,-12.25 -50.55,-12.06 -78.95,-3.2 -17.78,19.29 14.27,18.59 18.02,24.75" /><path
         id="path404"
         style="fill:#000000;fill-opacity:1;fill-rule:nonzero;stroke:none"
         d="m 2475.62,1354.28 c 2.15,-2.92 6.17,-3.75 5.33,-7.8 -1.84,-4.09 -8.71,-7.37 -11.91,-2.48 -0.15,3.98 0.51,12.03 6.58,10.28" /><path
         id="path406"
         style="fill:#000000;fill-opacity:1;fill-rule:nonzero;stroke:none"
         d="m 2463.83,1521.93 c 6.92,2.28 12.12,-2.52 10.39,-9.59 l 0.28,-6.98 -12.06,1.51 1.39,15.06" /><path
         id="path408"
         style="fill:#000000;fill-opacity:1;fill-rule:nonzero;stroke:none"
         d="m 2489.55,1430.9 c -0.93,-2.04 1.11,-2.96 2.15,-3.92 -4.52,12.82 19.18,20.81 -3.24,30.9 -3.7,16.86 17.16,45.73 14.66,57.63 l 16.59,10.69 c 13.39,-9.48 0.93,-22.98 -1.55,-36.1 -12.62,-9.52 -1.14,-21.06 -17.93,-26.75 l 12.6,-14.5 c -20.02,0.19 -9.02,-24.39 -24.72,-32.03 l -10.29,6.59 c 3.88,3.17 5.6,10.23 11.73,7.49" /><path
         id="path410"
         style="fill:#ffffff;fill-opacity:1;fill-rule:nonzero;stroke:none"
         d="m 2536.58,986.445 c 11.67,8.469 21.15,-3.152 31.27,-5.75 64.83,5.645 126.13,-0.879 192.93,-19.179 68.99,1.777 138.87,-18.399 206.89,-17.649 27.15,-27.929 58.83,5.383 87.82,-18.465 13.13,-3.468 19.9,2.813 31.25,-5.722 -21.57,-10.879 -51.95,-2.11 -77.05,-0.137 -60.28,5.566 -118.76,16.199 -180.91,18.691 l -0.09,1.993 c -57.27,5.703 -121.39,7.089 -176.22,26.894 -25.3,-18.047 -38.94,22.441 -61.68,-9.512 -22.25,6.114 -56.02,-0.265 -54.21,28.836" /><path
         id="path412"
         style="fill:#ffffff;fill-opacity:1;fill-rule:nonzero;stroke:none"
         d="m 2554.36,1313.43 c 83.28,19.39 150.87,-42.93 233.57,-9.55 36.05,24.49 69.37,41.85 115.66,35.7 15.7,7.67 31.39,15.3 47.74,6.96 11.77,-18.54 43.67,-15.26 61.29,-30.54 40.54,-12.38 81.19,-27.75 119.57,-36.2 16.71,-17.31 46.53,-12.11 66.21,-28.34 22.93,1.93 41.4,-9.32 60.75,-17.54 49.25,-5 100.65,-13.93 148.89,6.03 14.91,2.61 35.01,0.43 50.24,-4.96 26.95,-22.94 12.18,-53.55 17.27,-80.37 6.34,-32.77 2.11,-76.97 19.27,-105.31 5.12,-2.79 5.33,-7.79 2.5,-11.9 19.07,-26.26 27.33,-56.949 30.65,-89.832 -5.7,-7.254 -14.75,-6.609 -19.38,-15.808 9.04,-0.625 18.4,-9.258 20.76,-18.165 l -1.94,-26.105 c -12.59,-10.516 -23.71,17.062 -36.18,3.547 -5.61,14.785 -10.2,29.598 -15.81,44.394 l -9.3,-17.394 -7.41,9.699 -1.9,-2.07 c -5.14,27.812 -12.48,85.564 -48.71,115.114 -11.8,19.53 -7.06,50.75 -26.62,63.97 7.75,6.33 -18.82,20.25 -13.16,28.49 -35.91,21.57 -81.35,31.74 -122.96,21.04 -45.19,4.18 -87.69,15.45 -134.56,11.58 -0.12,2.97 -4.28,6.81 -8.29,6.64 -110.03,-1.44 -212.53,33.42 -317.39,28.15 l -23.02,-24.93 c -7.67,16.7 16.58,10.67 10.94,26.47 -26.03,-0.06 -43.46,10.23 -62.58,-11.54 -4.84,-4.2 -12.92,-2.52 -18.79,-5.78 -8.8,19.66 20.62,9.86 28.21,20.17 -21.02,0.14 -59.44,9.6 -66.58,-11.72 -16,-0.65 -23.12,-21.95 -38.36,-16.56 15.76,6.64 18.34,16.75 17.89,27.73 -31.67,15.75 -41.55,-36.71 -61.63,-10.5 l 4.67,8.2 c -8.19,4.68 -12.98,-0.53 -22.13,3.11 22.64,33.96 -6.79,68.8 0.62,108.12" /><path
         id="path414"
         style="fill:#ffffff;fill-opacity:1;fill-rule:nonzero;stroke:none"
         d="m 2597.77,1378.23 c -7.48,-13.31 -22.11,2.11 -29.18,3.83 l 4.71,7.21 24.47,-11.04" /><path
         id="path416"
         style="fill:#ffffff;fill-opacity:1;fill-rule:nonzero;stroke:none"
         d="m 2583.75,1427.71 c 14.46,-11.42 32.37,-8.71 50.73,-16.95 3.16,-3.87 8.07,-1.68 12.07,-1.52 l 4.83,4.21 c -11.97,23.53 -40.45,10.35 -56.13,26.74 -4.79,-5.2 -11.03,0.54 -15.19,4.39 l 10.81,29.46 c 99.38,-32.01 220.87,-66.11 324.99,-17.87 94.16,22.85 157.32,-53.65 245.45,-55.08 44.84,-20.2 76.27,-29.93 122.13,-50.1 4.72,7.21 17.1,-2.3 21.18,-4.14 17.31,-7.29 36.49,-11.53 53.85,-19.85 l 90.8,6.7 0.12,-3 c 39.69,-16.41 114.34,18.67 117.15,-50.29 -5.64,-34.25 -3.54,-86.2 4.85,-119.91 15.35,-8.38 13.24,-30.47 16.53,-37.36 21.94,-23.13 41.39,-58.38 34.85,-94.65 3.73,-17.88 26.68,-15.94 18.44,-35.295 -3.87,-3.164 -10.82,-4.453 -14.99,-0.605 -16.26,6.348 2.02,49.13 -24.95,23.02 -10.38,-15.44 11.58,-63.598 -18.63,-58.821 -33.19,28.68 26.97,26.121 6.65,58.331 -46.49,11.11 -8.5,61.7 -51.45,83.98 l -2.57,13.91 2.01,0.09 c 7.77,30.33 -8.64,64.7 -5.89,95.82 -43.86,20.23 -38.89,70.47 -63.97,96.48 -53.46,-14.16 -110.36,-42.5 -164.88,-30.68 -19.98,-0.82 -35.85,-4.47 -45.54,12.17 -6.19,4.75 -13.19,4.46 -19.27,6.21 -6.77,-5.28 -6.29,-17.27 -16.32,-16.68 -16.2,29.37 -48.56,37.07 -74.19,52.04 -8.1,2.67 -26.65,15.93 -39.52,12.41 l -0.13,2.99 c -28.38,8.87 -49.68,16 -81.7,15.7 l -0.09,1.99 c -46.12,2.15 -90.28,5.36 -132.85,18.65 -12.63,-9.5 -48.05,0.05 -54.47,-14.21 -15.95,-1.64 -16.79,19.33 -34.46,10.58 -4.16,3.85 -9.45,10.66 -14.2,4.45 -14.5,-12.59 -80.02,23.8 -61.96,-26.54 -15.88,-3.63 -6.93,22.75 -24.88,21.02 5.1,-26.82 -26.41,-15.08 -37.28,-18.54 -10.37,8.6 -19.11,2.23 -29.18,3.83 l -0.07,2.01 c -16.2,4.34 -23.94,-1.97 -34.54,12.61 4.87,3.2 8.86,3.35 11.66,8.48 -2.56,13.9 -13.89,21.45 -27.11,26.93 l -9.92,-2.41 7.23,19.3" /><path
         id="path418"
         style="fill:#000000;fill-opacity:1;fill-rule:nonzero;stroke:none"
         d="m 2688.81,1378.94 -4.71,-7.21 c -8.51,12.68 -30.28,-18.24 -38.26,5.47 13.38,15.55 28.26,-5.88 42.97,1.74" /><path
         id="path420"
         style="fill:#ffffff;fill-opacity:1;fill-rule:nonzero;stroke:none"
         d="m 3164.71,946.848 c 31.61,10.293 47.17,45.957 76.58,61.172 18.16,20.74 29.44,39.2 43.66,58.8 7.58,10.31 21.49,12.88 33.64,9.36 -2.27,-18.1 -18.44,-13.75 -31.08,-23.26 -18.53,-36.78 -54.68,-58.279 -75.13,-97.127 -12.41,-14.512 -34.88,-28.438 -48.71,-33.008 l -2.9,-2.129 c 14.27,-6.398 -4.87,-28.203 4.56,-38.828 -1.13,-21.074 6.12,-51.808 -2,-74.14 4.76,31.218 -20.36,58.222 -13.88,95.515 -12.91,22.481 -31.61,14.719 -52.71,16.867 17.73,6.727 56.11,-1.718 67.97,26.778" /><path
         id="path422"
         style="fill:#ffffff;fill-opacity:1;fill-rule:nonzero;stroke:none"
         d="m 3465.45,884.992 c 8.2,-4.668 11.97,-23.535 10.37,-33.613 -17.13,3.32 -6.8,19.746 -10.37,33.613" /></g></g></svg>